M48
;Layer_Color=9474304
;FILE_FORMAT=2:5
INCH,LZ
;TYPE=PLATED
T1F00S00C0.01181
T2F00S00C0.02559
T3F00S00C0.03937
T4F00S00C0.11811
;TYPE=NON_PLATED
T5F00S00C0.02559
T6F00S00C0.03543
%
T01
X0156188Y0330709
X0149375Y0365056
X0157143Y0336968
X0196641Y0328276
X0209278Y0325065
X0212851Y0335935
X0212294Y0350984
X0220495Y0349283
X0222441Y034252
X0226378Y0330709
X0226895Y0354077
X0249197Y035465
X0253906Y03509
X0250396Y0339222
X0243761Y0323686
X0236141Y0312778
X026562Y0329709
X0266182Y0357036
X0267717Y0364804
X0261361Y0365013
X0275367Y0365147
X0276945Y0361559
X0282675Y0355823
X028186Y0345003
X027361Y037285
X0279015Y0380056
X0248038Y0381739
X0249425Y0375997
X0251969Y0370079
X0253937Y0401575
X0253592Y0410252
X0234948Y0403145
X021063Y0403543
X021307Y0399457
X0207418Y0395346
X0204567Y038668
X0201823Y0384479
X0199054Y0377232
X0202093Y0372251
X020511Y0373874
X0202128Y0362579
X0206693Y0358268
X021063Y0361039
X0185031Y0387955
X0187008Y0409449
X0181167Y0415153
X0165064Y0414014
X016233Y0389262
X022157Y0422088
T02
X0281496Y040748
Y042126
X0279528Y0448819
Y0462598
T03
X0143701Y0444882
X0173622
T04
X0287183Y0304291
X0125984Y046063
T05
X0206535Y0301181
X0216535
X0226535
X0236535
X0125984Y0375512
Y0385512
Y0395512
Y0405512
Y0415512
X0287402Y0384331
Y0374331
Y0364331
Y0354331
X0288894Y0339073
Y0329073
Y0319073
T06
X0132165Y031505
X0163661
M30
