G04*
G04 #@! TF.GenerationSoftware,Altium Limited,Altium Designer,20.1.12 (249)*
G04*
G04 Layer_Physical_Order=2*
G04 Layer_Color=16711680*
%FSLAX25Y25*%
%MOIN*%
G70*
G04*
G04 #@! TF.SameCoordinates,A4FAC8CF-ADEF-4931-830A-096F340B5E0A*
G04*
G04*
G04 #@! TF.FilePolarity,Positive*
G04*
G01*
G75*
%ADD15R,0.07087X0.04528*%
%ADD19R,0.04528X0.07087*%
%ADD21R,0.07087X0.03937*%
%ADD58C,0.01181*%
%ADD59C,0.07874*%
%ADD60C,0.03937*%
%ADD61C,0.06693*%
%ADD62R,0.03937X0.03937*%
%ADD63R,0.03937X0.03937*%
%ADD64C,0.02362*%
G36*
X294808Y295743D02*
X294814Y295738D01*
X294622Y295276D01*
X119871D01*
X118110Y297037D01*
Y472441D01*
X294808D01*
Y295743D01*
D02*
G37*
%LPC*%
G36*
X280028Y467512D02*
Y463098D01*
X284441D01*
X284337Y463887D01*
X283840Y465088D01*
X283049Y466119D01*
X282017Y466911D01*
X280816Y467408D01*
X280028Y467512D01*
D02*
G37*
G36*
X279028D02*
X278239Y467408D01*
X277038Y466911D01*
X276006Y466119D01*
X275215Y465088D01*
X274718Y463887D01*
X274614Y463098D01*
X279028D01*
Y467512D01*
D02*
G37*
G36*
X284441Y462098D02*
X280028D01*
Y457685D01*
X280816Y457789D01*
X282017Y458286D01*
X283049Y459077D01*
X283840Y460109D01*
X284337Y461310D01*
X284441Y462098D01*
D02*
G37*
G36*
X279028D02*
X274614D01*
X274718Y461310D01*
X275215Y460109D01*
X276006Y459077D01*
X277038Y458286D01*
X278239Y457789D01*
X279028Y457685D01*
Y462098D01*
D02*
G37*
G36*
X125984Y467569D02*
X124630Y467436D01*
X123329Y467041D01*
X122129Y466399D01*
X121078Y465536D01*
X120215Y464485D01*
X119573Y463285D01*
X119179Y461984D01*
X119045Y460630D01*
X119179Y459276D01*
X119573Y457974D01*
X120215Y456775D01*
X121078Y455723D01*
X122129Y454860D01*
X123329Y454219D01*
X124630Y453824D01*
X125984Y453691D01*
X127338Y453824D01*
X128640Y454219D01*
X129839Y454860D01*
X130891Y455723D01*
X131754Y456775D01*
X132395Y457974D01*
X132790Y459276D01*
X132923Y460630D01*
X132790Y461984D01*
X132395Y463285D01*
X131754Y464485D01*
X130891Y465536D01*
X129839Y466399D01*
X128640Y467041D01*
X127338Y467436D01*
X125984Y467569D01*
D02*
G37*
G36*
X174122Y449200D02*
Y445382D01*
X177940D01*
X177857Y446017D01*
X177419Y447074D01*
X176722Y447982D01*
X175814Y448678D01*
X174757Y449117D01*
X174122Y449200D01*
D02*
G37*
G36*
X173122Y449200D02*
X172487Y449117D01*
X171430Y448678D01*
X170522Y447982D01*
X169825Y447074D01*
X169387Y446017D01*
X169304Y445382D01*
X173122D01*
Y449200D01*
D02*
G37*
G36*
X279528Y453394D02*
X278344Y453238D01*
X277240Y452781D01*
X276293Y452054D01*
X275566Y451106D01*
X275109Y450003D01*
X274953Y448819D01*
X275109Y447635D01*
X275566Y446532D01*
X276293Y445584D01*
X277240Y444857D01*
X278344Y444400D01*
X279528Y444244D01*
X280712Y444400D01*
X281815Y444857D01*
X282762Y445584D01*
X283489Y446532D01*
X283946Y447635D01*
X284102Y448819D01*
X283946Y450003D01*
X283489Y451106D01*
X282762Y452054D01*
X281815Y452781D01*
X280712Y453238D01*
X279528Y453394D01*
D02*
G37*
G36*
X143701Y448861D02*
X142671Y448725D01*
X141711Y448328D01*
X140887Y447695D01*
X140255Y446871D01*
X139857Y445912D01*
X139722Y444882D01*
X139857Y443852D01*
X140255Y442892D01*
X140887Y442068D01*
X141711Y441436D01*
X142671Y441039D01*
X143701Y440903D01*
X144731Y441039D01*
X145690Y441436D01*
X146514Y442068D01*
X147147Y442892D01*
X147544Y443852D01*
X147680Y444882D01*
X147544Y445912D01*
X147147Y446871D01*
X146514Y447695D01*
X145690Y448328D01*
X144731Y448725D01*
X143701Y448861D01*
D02*
G37*
G36*
X173122Y444382D02*
X169304D01*
X169387Y443747D01*
X169825Y442690D01*
X170522Y441782D01*
X171430Y441085D01*
X172487Y440647D01*
X173122Y440564D01*
Y444382D01*
D02*
G37*
G36*
X177940D02*
X174122D01*
Y440564D01*
X174757Y440647D01*
X175814Y441085D01*
X176722Y441782D01*
X177419Y442690D01*
X177857Y443747D01*
X177940Y444382D01*
D02*
G37*
G36*
X281996Y426174D02*
Y421760D01*
X286410D01*
X286306Y422549D01*
X285808Y423750D01*
X285017Y424781D01*
X283986Y425572D01*
X282785Y426070D01*
X281996Y426174D01*
D02*
G37*
G36*
X280996D02*
X280207Y426070D01*
X279006Y425572D01*
X277975Y424781D01*
X277184Y423750D01*
X276686Y422549D01*
X276582Y421760D01*
X280996D01*
Y426174D01*
D02*
G37*
G36*
X221570Y423902D02*
X220876Y423764D01*
X220287Y423371D01*
X220240Y423300D01*
X188101D01*
X187638Y423208D01*
X187244Y422945D01*
X181251Y416951D01*
X181167Y416968D01*
X180473Y416830D01*
X179884Y416436D01*
X179491Y415848D01*
X179353Y415153D01*
X179369Y415070D01*
X172992Y408693D01*
X159653D01*
Y410047D01*
X151370D01*
Y404913D01*
X159653D01*
Y406268D01*
X166821D01*
X175953Y397136D01*
Y384360D01*
X174695Y383102D01*
X150298D01*
X149834Y383010D01*
X149441Y382747D01*
X148518Y381824D01*
X148255Y381430D01*
X148163Y380966D01*
Y366386D01*
X148092Y366339D01*
X147699Y365750D01*
X147560Y365056D01*
X147699Y364362D01*
X148092Y363773D01*
X148680Y363380D01*
X149375Y363242D01*
X150069Y363380D01*
X150658Y363773D01*
X151051Y364362D01*
X151189Y365056D01*
X151051Y365750D01*
X150658Y366339D01*
X150587Y366386D01*
Y372492D01*
X150969Y372778D01*
X151087Y372778D01*
X155012D01*
Y376042D01*
Y379306D01*
X151087D01*
X150969Y379306D01*
X150587Y379592D01*
Y380464D01*
X150800Y380678D01*
X175197D01*
X175661Y380770D01*
X176054Y381033D01*
X178023Y383001D01*
X178285Y383394D01*
X178378Y383858D01*
Y397638D01*
X178285Y398102D01*
X178023Y398495D01*
X170712Y405806D01*
X170903Y406268D01*
X173494D01*
X173958Y406360D01*
X174351Y406623D01*
X181084Y413355D01*
X181167Y413339D01*
X181861Y413477D01*
X182450Y413870D01*
X182843Y414459D01*
X182981Y415153D01*
X182965Y415237D01*
X188604Y420876D01*
X220240D01*
X220287Y420805D01*
X220876Y420411D01*
X221570Y420273D01*
X222265Y420411D01*
X222853Y420805D01*
X223247Y421393D01*
X223385Y422088D01*
X223247Y422782D01*
X222853Y423371D01*
X222265Y423764D01*
X221570Y423902D01*
D02*
G37*
G36*
X286410Y420760D02*
X281996D01*
Y416346D01*
X282785Y416450D01*
X283986Y416947D01*
X285017Y417739D01*
X285808Y418770D01*
X286306Y419971D01*
X286410Y420760D01*
D02*
G37*
G36*
X280996D02*
X276582D01*
X276686Y419971D01*
X277184Y418770D01*
X277975Y417739D01*
X279006Y416947D01*
X280207Y416450D01*
X280996Y416346D01*
Y420760D01*
D02*
G37*
G36*
X128551Y418079D02*
X123417D01*
Y412945D01*
X128551D01*
Y418079D01*
D02*
G37*
G36*
X165064Y415828D02*
X164369Y415690D01*
X163780Y415297D01*
X163733Y415226D01*
X150148D01*
X149684Y415134D01*
X149291Y414871D01*
X141144Y406724D01*
X128261D01*
X128226Y406806D01*
X127815Y407343D01*
X127279Y407754D01*
X126654Y408013D01*
X125984Y408101D01*
X125314Y408013D01*
X124690Y407754D01*
X124153Y407343D01*
X123742Y406806D01*
X123483Y406182D01*
X123395Y405512D01*
X123483Y404842D01*
X123742Y404217D01*
X124153Y403681D01*
X124690Y403270D01*
X125314Y403011D01*
X125984Y402923D01*
X126654Y403011D01*
X127279Y403270D01*
X127815Y403681D01*
X128226Y404217D01*
X128261Y404299D01*
X141646D01*
X142110Y404392D01*
X142503Y404655D01*
X150650Y412801D01*
X163733D01*
X163780Y412731D01*
X164369Y412337D01*
X165064Y412199D01*
X165758Y412337D01*
X166347Y412731D01*
X166740Y413319D01*
X166878Y414014D01*
X166740Y414708D01*
X166347Y415297D01*
X165758Y415690D01*
X165064Y415828D01*
D02*
G37*
G36*
X254092Y412376D02*
Y410752D01*
X255717D01*
X255647Y411103D01*
X255165Y411824D01*
X254443Y412306D01*
X254092Y412376D01*
D02*
G37*
G36*
X253092D02*
X252741Y412306D01*
X252020Y411824D01*
X251538Y411103D01*
X251468Y410752D01*
X253092D01*
Y412376D01*
D02*
G37*
G36*
X255717Y409752D02*
X254092D01*
Y408128D01*
X254443Y408197D01*
X255165Y408679D01*
X255647Y409401D01*
X255717Y409752D01*
D02*
G37*
G36*
X253092D02*
X251468D01*
X251538Y409401D01*
X252020Y408679D01*
X252741Y408197D01*
X253092Y408128D01*
Y409752D01*
D02*
G37*
G36*
X281496Y412055D02*
X280312Y411899D01*
X279209Y411442D01*
X278261Y410715D01*
X277534Y409768D01*
X277077Y408664D01*
X276922Y407480D01*
X277077Y406296D01*
X277534Y405193D01*
X278261Y404246D01*
X279209Y403519D01*
X280312Y403062D01*
X281496Y402906D01*
X282680Y403062D01*
X283783Y403519D01*
X284731Y404246D01*
X285458Y405193D01*
X285915Y406296D01*
X286071Y407480D01*
X285915Y408664D01*
X285458Y409768D01*
X284731Y410715D01*
X283783Y411442D01*
X282680Y411899D01*
X281496Y412055D01*
D02*
G37*
G36*
X254437Y403699D02*
Y402075D01*
X256061D01*
X255992Y402426D01*
X255509Y403147D01*
X254788Y403629D01*
X254437Y403699D01*
D02*
G37*
G36*
X253437D02*
X253086Y403629D01*
X252364Y403147D01*
X251883Y402426D01*
X251813Y402075D01*
X253437D01*
Y403699D01*
D02*
G37*
G36*
X210630Y405358D02*
X209936Y405220D01*
X209347Y404826D01*
X208954Y404238D01*
X208816Y403543D01*
X208832Y403460D01*
X205366Y399994D01*
X197527D01*
X197410Y399971D01*
X192992D01*
Y391687D01*
X198716D01*
Y397569D01*
X205868D01*
X206332Y397661D01*
X206725Y397924D01*
X210546Y401746D01*
X210630Y401729D01*
X211324Y401867D01*
X211913Y402260D01*
X212306Y402849D01*
X212444Y403543D01*
X212306Y404238D01*
X211913Y404826D01*
X211324Y405220D01*
X210630Y405358D01*
D02*
G37*
G36*
X187008Y411263D02*
X186313Y411125D01*
X185725Y410732D01*
X185332Y410143D01*
X185194Y409449D01*
X185332Y408754D01*
X185725Y408166D01*
X186313Y407772D01*
X187008Y407634D01*
X187702Y407772D01*
X188291Y408166D01*
X188338Y408237D01*
X228142D01*
X233150Y403229D01*
X233134Y403145D01*
X233272Y402451D01*
X233665Y401862D01*
X234254Y401469D01*
X234948Y401331D01*
X235642Y401469D01*
X236231Y401862D01*
X236624Y402451D01*
X236762Y403145D01*
X236624Y403839D01*
X236231Y404428D01*
X235642Y404821D01*
X234948Y404959D01*
X234864Y404943D01*
X229501Y410306D01*
X229108Y410569D01*
X228644Y410661D01*
X188338D01*
X188291Y410732D01*
X187702Y411125D01*
X187008Y411263D01*
D02*
G37*
G36*
X256061Y401075D02*
X254437D01*
Y399450D01*
X254788Y399520D01*
X255509Y400002D01*
X255992Y400724D01*
X256061Y401075D01*
D02*
G37*
G36*
X253437D02*
X251813D01*
X251883Y400724D01*
X252364Y400002D01*
X253086Y399520D01*
X253437Y399450D01*
Y401075D01*
D02*
G37*
G36*
X213070Y401271D02*
X212376Y401133D01*
X211787Y400740D01*
X211394Y400151D01*
X211256Y399457D01*
X211394Y398762D01*
X211632Y398406D01*
Y398386D01*
X209868Y396622D01*
X208705D01*
X208701Y396629D01*
X208112Y397022D01*
X207418Y397160D01*
X206723Y397022D01*
X206135Y396629D01*
X205741Y396040D01*
X205603Y395346D01*
X205741Y394651D01*
X206135Y394063D01*
X206723Y393669D01*
X207418Y393531D01*
X208112Y393669D01*
X208701Y394063D01*
X208791Y394197D01*
X210370D01*
X210834Y394290D01*
X211228Y394552D01*
X213702Y397026D01*
X213964Y397420D01*
X214057Y397884D01*
Y397975D01*
X214353Y398174D01*
X214747Y398762D01*
X214885Y399457D01*
X214747Y400151D01*
X214353Y400740D01*
X213765Y401133D01*
X213070Y401271D01*
D02*
G37*
G36*
X187307Y400372D02*
X184543D01*
Y396329D01*
X187307D01*
Y400372D01*
D02*
G37*
G36*
X183543D02*
X180779D01*
Y396329D01*
X183543D01*
Y400372D01*
D02*
G37*
G36*
X126484Y398440D02*
Y396012D01*
X128913D01*
X128876Y396287D01*
X128577Y397009D01*
X128101Y397629D01*
X127481Y398105D01*
X126759Y398404D01*
X126484Y398440D01*
D02*
G37*
G36*
X125484Y398440D02*
X125209Y398404D01*
X124487Y398105D01*
X123867Y397629D01*
X123391Y397009D01*
X123092Y396287D01*
X123056Y396012D01*
X125484D01*
Y398440D01*
D02*
G37*
G36*
X128912Y395012D02*
X126484D01*
Y392583D01*
X126759Y392620D01*
X127481Y392919D01*
X128101Y393395D01*
X128577Y394015D01*
X128876Y394737D01*
X128912Y395012D01*
D02*
G37*
G36*
X125484D02*
X123056D01*
X123092Y394737D01*
X123391Y394015D01*
X123867Y393395D01*
X124487Y392919D01*
X125209Y392620D01*
X125484Y392583D01*
Y395012D01*
D02*
G37*
G36*
X187307Y395329D02*
X184543D01*
Y391285D01*
X187307D01*
Y395329D01*
D02*
G37*
G36*
X183543D02*
X180779D01*
Y391285D01*
X183543D01*
Y395329D01*
D02*
G37*
G36*
X185531Y390079D02*
Y388455D01*
X187156D01*
X187086Y388806D01*
X186604Y389527D01*
X185882Y390009D01*
X185531Y390079D01*
D02*
G37*
G36*
X184531D02*
X184180Y390009D01*
X183459Y389527D01*
X182977Y388806D01*
X182907Y388455D01*
X184531D01*
Y390079D01*
D02*
G37*
G36*
X159653Y398236D02*
X151370D01*
Y393102D01*
X154299D01*
Y390715D01*
X151370D01*
Y384991D01*
X159653D01*
Y386641D01*
X160827D01*
X161291Y386733D01*
X161684Y386996D01*
X162168Y387479D01*
X162330Y387447D01*
X163024Y387585D01*
X163613Y387979D01*
X164006Y388567D01*
X164144Y389262D01*
X164006Y389956D01*
X163613Y390545D01*
X163024Y390938D01*
X162330Y391076D01*
X161635Y390938D01*
X161047Y390545D01*
X160653Y389956D01*
X160537Y389371D01*
X160072Y389124D01*
X159653Y389275D01*
Y390715D01*
X156724D01*
Y393102D01*
X159653D01*
Y398236D01*
D02*
G37*
G36*
X205067Y388804D02*
Y387180D01*
X206692D01*
X206622Y387531D01*
X206140Y388253D01*
X205418Y388735D01*
X205067Y388804D01*
D02*
G37*
G36*
X204067D02*
X203716Y388735D01*
X202995Y388253D01*
X202513Y387531D01*
X202344Y386680D01*
X202357Y386611D01*
X202004Y386257D01*
X201823Y386293D01*
X201129Y386155D01*
X200540Y385762D01*
X200147Y385173D01*
X200009Y384479D01*
X200147Y383784D01*
X200540Y383196D01*
X200611Y383149D01*
Y378914D01*
X200207Y378602D01*
X199749Y378908D01*
X199054Y379046D01*
X198360Y378908D01*
X197771Y378515D01*
X197378Y377926D01*
X197240Y377232D01*
X197378Y376537D01*
X197771Y375949D01*
X198360Y375555D01*
X199054Y375417D01*
X199749Y375555D01*
X200030Y375743D01*
X200378Y375674D01*
X200842Y375766D01*
X201235Y376029D01*
X201235Y376029D01*
X202680Y377474D01*
X202943Y377868D01*
X203035Y378331D01*
Y383149D01*
X203106Y383196D01*
X203499Y383784D01*
X203575Y384165D01*
X204067Y384531D01*
Y386680D01*
Y388804D01*
D02*
G37*
G36*
X187156Y387455D02*
X185531D01*
Y385830D01*
X185882Y385900D01*
X186604Y386382D01*
X187086Y387104D01*
X187156Y387455D01*
D02*
G37*
G36*
X184531D02*
X182907D01*
X182977Y387104D01*
X183459Y386382D01*
X184180Y385900D01*
X184531Y385830D01*
Y387455D01*
D02*
G37*
G36*
X206692Y386180D02*
X205067D01*
Y384556D01*
X205418Y384626D01*
X206140Y385108D01*
X206622Y385829D01*
X206692Y386180D01*
D02*
G37*
G36*
X125984Y388101D02*
X125314Y388013D01*
X124690Y387754D01*
X124153Y387343D01*
X123742Y386806D01*
X123483Y386182D01*
X123395Y385512D01*
X123483Y384842D01*
X123742Y384217D01*
X124153Y383681D01*
X124690Y383270D01*
X125314Y383011D01*
X125984Y382923D01*
X126654Y383011D01*
X127279Y383270D01*
X127815Y383681D01*
X128226Y384217D01*
X128485Y384842D01*
X128573Y385512D01*
X128485Y386182D01*
X128226Y386806D01*
X127815Y387343D01*
X127279Y387754D01*
X126654Y388013D01*
X125984Y388101D01*
D02*
G37*
G36*
X287402Y386920D02*
X286732Y386832D01*
X286107Y386573D01*
X285571Y386161D01*
X285234Y385722D01*
X242654D01*
X242190Y385630D01*
X241797Y385367D01*
X235363Y378934D01*
X235101Y378541D01*
X235008Y378077D01*
Y361260D01*
X212415D01*
X212397Y361277D01*
X212306Y361734D01*
X211913Y362322D01*
X211324Y362716D01*
X210630Y362854D01*
X209936Y362716D01*
X209347Y362322D01*
X208954Y361734D01*
X208816Y361039D01*
X208954Y360345D01*
X209198Y359980D01*
X208930Y359480D01*
X208023D01*
X207976Y359551D01*
X207387Y359944D01*
X206693Y360082D01*
X205999Y359944D01*
X205410Y359551D01*
X205017Y358962D01*
X204878Y358268D01*
X205017Y357573D01*
X205410Y356985D01*
X205999Y356591D01*
X206693Y356453D01*
X207387Y356591D01*
X207976Y356985D01*
X208023Y357055D01*
X236266D01*
X236730Y357148D01*
X237123Y357411D01*
X244573Y364860D01*
X244835Y365254D01*
X244928Y365718D01*
Y365866D01*
X249307Y370244D01*
X249762Y369992D01*
X249914Y369228D01*
X250396Y368506D01*
X251117Y368024D01*
X251468Y367954D01*
Y370079D01*
X251969D01*
Y370579D01*
X254093D01*
X254023Y370930D01*
X253541Y371651D01*
X252819Y372133D01*
X252055Y372285D01*
X251803Y372741D01*
X253485Y374422D01*
X271928D01*
X272186Y373922D01*
X271934Y373545D01*
X271796Y372850D01*
X271934Y372156D01*
X272327Y371567D01*
X272398Y371520D01*
Y369275D01*
X271738Y368615D01*
X271475Y368221D01*
X271383Y367758D01*
Y334597D01*
X271475Y334133D01*
X271738Y333739D01*
X277244Y328233D01*
Y323139D01*
X277228Y323128D01*
X276728Y323395D01*
Y327595D01*
X270159D01*
X267414Y330340D01*
X267277Y330431D01*
X266903Y330992D01*
X266314Y331385D01*
X265620Y331523D01*
X264925Y331385D01*
X264337Y330992D01*
X263943Y330403D01*
X263805Y329709D01*
X263943Y329014D01*
X264337Y328426D01*
X264925Y328032D01*
X265620Y327894D01*
X266296Y328029D01*
X268444Y325881D01*
Y322461D01*
X276377D01*
X276584Y321961D01*
X275878Y321254D01*
X247208D01*
X246744Y321162D01*
X246350Y320899D01*
X243237Y317786D01*
X242974Y317393D01*
X242882Y316929D01*
Y298834D01*
X238515D01*
X238345Y299334D01*
X238366Y299350D01*
X238778Y299887D01*
X239036Y300511D01*
X239124Y301181D01*
X239036Y301851D01*
X238778Y302476D01*
X238366Y303012D01*
X237830Y303423D01*
X237206Y303682D01*
X236535Y303770D01*
X235865Y303682D01*
X235783Y303648D01*
X228202Y311228D01*
Y326396D01*
X243644D01*
X243693Y325896D01*
X243365Y325831D01*
X242910Y325740D01*
X242188Y325258D01*
X241706Y324536D01*
X241636Y324185D01*
X245885D01*
X245815Y324536D01*
X245333Y325258D01*
X244612Y325740D01*
X243828Y325896D01*
X243877Y326396D01*
X261119D01*
X261583Y326488D01*
X261976Y326751D01*
X262668Y327443D01*
X262931Y327836D01*
X263023Y328300D01*
Y361513D01*
X262931Y361977D01*
X262668Y362370D01*
X262573Y362465D01*
Y363682D01*
X262644Y363730D01*
X263037Y364318D01*
X263175Y365013D01*
X263037Y365707D01*
X262644Y366296D01*
X262055Y366689D01*
X261361Y366827D01*
X260667Y366689D01*
X260078Y366296D01*
X259685Y365707D01*
X259547Y365013D01*
X259685Y364318D01*
X260078Y363730D01*
X260149Y363682D01*
Y361963D01*
X260241Y361499D01*
X260504Y361106D01*
X260599Y361011D01*
Y328820D01*
X227682D01*
X227644Y328813D01*
X227449Y329284D01*
X227661Y329426D01*
X228054Y330014D01*
X228192Y330709D01*
X228098Y331181D01*
X228107Y331226D01*
Y352746D01*
X228178Y352794D01*
X228571Y353382D01*
X228709Y354077D01*
X228571Y354771D01*
X228178Y355360D01*
X227589Y355753D01*
X226895Y355891D01*
X226201Y355753D01*
X225612Y355360D01*
X225219Y354771D01*
X225080Y354077D01*
X225219Y353382D01*
X225612Y352794D01*
X225683Y352746D01*
Y332384D01*
X225095Y331992D01*
X224702Y331403D01*
X224564Y330709D01*
X224702Y330014D01*
X225095Y329426D01*
X225684Y329032D01*
X226378Y328894D01*
X226647Y328948D01*
X226842Y328477D01*
X226825Y328466D01*
X226133Y327774D01*
X225870Y327380D01*
X225778Y326916D01*
Y310726D01*
X225870Y310262D01*
X226133Y309869D01*
X234069Y301934D01*
X234035Y301851D01*
X233946Y301181D01*
X234035Y300511D01*
X234089Y300379D01*
X233665Y300096D01*
X231723Y302038D01*
X231330Y302301D01*
X230866Y302393D01*
X228812D01*
X228778Y302476D01*
X228366Y303012D01*
X227830Y303423D01*
X227205Y303682D01*
X226535Y303770D01*
X225865Y303682D01*
X225241Y303423D01*
X224705Y303012D01*
X224293Y302476D01*
X224035Y301851D01*
X223946Y301181D01*
X224035Y300511D01*
X224293Y299887D01*
X224705Y299350D01*
X225241Y298939D01*
X225865Y298680D01*
X226535Y298592D01*
X227205Y298680D01*
X227830Y298939D01*
X228366Y299350D01*
X228778Y299887D01*
X228812Y299969D01*
X230364D01*
X233568Y296765D01*
X233961Y296502D01*
X234425Y296410D01*
X243403D01*
X243866Y296502D01*
X244260Y296765D01*
X244952Y297457D01*
X245215Y297850D01*
X245307Y298314D01*
Y316427D01*
X247710Y318830D01*
X276380D01*
X276844Y318922D01*
X277237Y319185D01*
X279314Y321262D01*
X279577Y321655D01*
X279669Y322119D01*
Y328735D01*
X279577Y329199D01*
X279314Y329593D01*
X273808Y335099D01*
Y363448D01*
X274307Y363715D01*
X274673Y363471D01*
X275367Y363333D01*
X275552Y363370D01*
X275747Y362899D01*
X275662Y362842D01*
X275269Y362253D01*
X275131Y361559D01*
X275269Y360865D01*
X275662Y360276D01*
X275733Y360229D01*
Y335989D01*
X275825Y335525D01*
X276088Y335132D01*
X281018Y330201D01*
Y325737D01*
X281111Y325273D01*
X281373Y324880D01*
X286327Y319926D01*
Y316506D01*
X291461D01*
Y321640D01*
X288042D01*
X283443Y326239D01*
Y330704D01*
X283351Y331168D01*
X283088Y331561D01*
X278157Y336491D01*
Y360229D01*
X278228Y360276D01*
X278621Y360865D01*
X278759Y361559D01*
X278621Y362253D01*
X278228Y362842D01*
X277639Y363235D01*
X276945Y363373D01*
X276760Y363337D01*
X276565Y363808D01*
X276650Y363864D01*
X277043Y364453D01*
X277181Y365147D01*
X277170Y365202D01*
X278646Y366677D01*
X284830D01*
X285077Y366178D01*
X284809Y365828D01*
X284509Y365106D01*
X284473Y364831D01*
X287402D01*
X290330D01*
X290294Y365106D01*
X289995Y365828D01*
X289656Y366268D01*
X289647Y366383D01*
X289728Y366797D01*
X289778Y366879D01*
X290007Y367033D01*
X292196Y369221D01*
X292459Y369615D01*
X292551Y370079D01*
Y375427D01*
X292459Y375891D01*
X292196Y376284D01*
X289733Y378747D01*
X289340Y379010D01*
X288876Y379102D01*
X281683D01*
X280813Y379973D01*
X280829Y380056D01*
X280691Y380750D01*
X280298Y381339D01*
X279709Y381732D01*
X279015Y381871D01*
X278320Y381732D01*
X277732Y381339D01*
X277338Y380750D01*
X277200Y380056D01*
X277338Y379362D01*
X277732Y378773D01*
X278320Y378380D01*
X279015Y378242D01*
X279098Y378258D01*
X280010Y377347D01*
X279802Y376847D01*
X252982D01*
X252519Y376755D01*
X252125Y376492D01*
X251729Y376096D01*
X251187Y376261D01*
X251101Y376691D01*
X250708Y377280D01*
X250637Y377327D01*
Y380046D01*
X250545Y380509D01*
X250282Y380903D01*
X249785Y381400D01*
X249853Y381739D01*
X249714Y382433D01*
X249471Y382798D01*
X249738Y383298D01*
X285051D01*
X285159Y383036D01*
X285571Y382500D01*
X286107Y382088D01*
X286732Y381830D01*
X287402Y381742D01*
X288072Y381830D01*
X288696Y382088D01*
X289232Y382500D01*
X289644Y383036D01*
X289902Y383661D01*
X289991Y384331D01*
X289902Y385001D01*
X289644Y385625D01*
X289232Y386161D01*
X288696Y386573D01*
X288072Y386832D01*
X287402Y386920D01*
D02*
G37*
G36*
X156012Y379306D02*
Y376542D01*
X160055D01*
Y379306D01*
X156012D01*
D02*
G37*
G36*
X205610Y375999D02*
Y374374D01*
X207235D01*
X207165Y374725D01*
X206683Y375447D01*
X205961Y375929D01*
X205610Y375999D01*
D02*
G37*
G36*
X125984Y378101D02*
X125314Y378013D01*
X124690Y377754D01*
X124153Y377343D01*
X123742Y376806D01*
X123483Y376182D01*
X123395Y375512D01*
X123483Y374842D01*
X123742Y374217D01*
X124153Y373681D01*
X124690Y373270D01*
X125314Y373011D01*
X125984Y372923D01*
X126654Y373011D01*
X127279Y373270D01*
X127815Y373681D01*
X128226Y374217D01*
X128485Y374842D01*
X128573Y375512D01*
X128485Y376182D01*
X128226Y376806D01*
X127815Y377343D01*
X127279Y377754D01*
X126654Y378013D01*
X125984Y378101D01*
D02*
G37*
G36*
X160055Y375542D02*
X156012D01*
Y372778D01*
X160055D01*
Y375542D01*
D02*
G37*
G36*
X201593Y374375D02*
X201242Y374305D01*
X200521Y373823D01*
X200039Y373102D01*
X199969Y372751D01*
X201593D01*
Y374375D01*
D02*
G37*
G36*
X207235Y373374D02*
X205610D01*
Y371750D01*
X205961Y371820D01*
X206683Y372302D01*
X207165Y373023D01*
X207235Y373374D01*
D02*
G37*
G36*
X204610Y375999D02*
X204259Y375929D01*
X203538Y375447D01*
X203056Y374725D01*
X202593Y374462D01*
Y372251D01*
Y370126D01*
X202944Y370196D01*
X203666Y370678D01*
X204148Y371400D01*
X204610Y371663D01*
Y373874D01*
Y375999D01*
D02*
G37*
G36*
X201593Y371751D02*
X199969D01*
X200039Y371400D01*
X200521Y370678D01*
X201242Y370196D01*
X201593Y370126D01*
Y371751D01*
D02*
G37*
G36*
X254093Y369579D02*
X252468D01*
Y367954D01*
X252819Y368024D01*
X253541Y368506D01*
X254023Y369228D01*
X254093Y369579D01*
D02*
G37*
G36*
X202628Y364704D02*
Y363079D01*
X204252D01*
X204182Y363430D01*
X203700Y364152D01*
X202979Y364634D01*
X202628Y364704D01*
D02*
G37*
G36*
X201628D02*
X201277Y364634D01*
X200555Y364152D01*
X200073Y363430D01*
X200003Y363079D01*
X201628D01*
Y364704D01*
D02*
G37*
G36*
X290330Y363831D02*
X287902D01*
Y361402D01*
X288176Y361439D01*
X288899Y361738D01*
X289519Y362213D01*
X289995Y362834D01*
X290294Y363556D01*
X290330Y363831D01*
D02*
G37*
G36*
X286902D02*
X284473D01*
X284509Y363556D01*
X284809Y362834D01*
X285284Y362213D01*
X285905Y361738D01*
X286627Y361439D01*
X286902Y361402D01*
Y363831D01*
D02*
G37*
G36*
X204252Y362079D02*
X202628D01*
Y360455D01*
X202979Y360525D01*
X203700Y361007D01*
X204182Y361728D01*
X204252Y362079D01*
D02*
G37*
G36*
X201628D02*
X200003D01*
X200073Y361728D01*
X200555Y361007D01*
X201277Y360525D01*
X201628Y360455D01*
Y362079D01*
D02*
G37*
G36*
X267717Y366618D02*
X267022Y366480D01*
X266434Y366087D01*
X266040Y365498D01*
X265902Y364804D01*
X266040Y364110D01*
X266434Y363521D01*
X266504Y363474D01*
Y361310D01*
X265550Y360356D01*
X265288Y359962D01*
X265195Y359499D01*
Y358518D01*
X264899Y358319D01*
X264505Y357731D01*
X264367Y357036D01*
X264505Y356342D01*
X264899Y355753D01*
X265487Y355360D01*
X266182Y355222D01*
X266876Y355360D01*
X267464Y355753D01*
X267858Y356342D01*
X267996Y357036D01*
X267858Y357731D01*
X267620Y358087D01*
Y358996D01*
X268574Y359950D01*
X268836Y360344D01*
X268929Y360807D01*
Y363474D01*
X269000Y363521D01*
X269393Y364110D01*
X269531Y364804D01*
X269393Y365498D01*
X269000Y366087D01*
X268411Y366480D01*
X267717Y366618D01*
D02*
G37*
G36*
X249197Y356464D02*
X248502Y356326D01*
X247914Y355933D01*
X247867Y355862D01*
X247534D01*
X247070Y355770D01*
X246677Y355507D01*
X242106Y350936D01*
X235537D01*
Y345211D01*
X243821D01*
Y349221D01*
X247945Y353346D01*
X248502Y352973D01*
X249197Y352835D01*
X249891Y352973D01*
X250480Y353367D01*
X250873Y353955D01*
X251011Y354650D01*
X250873Y355344D01*
X250480Y355933D01*
X249891Y356326D01*
X249197Y356464D01*
D02*
G37*
G36*
X282675Y357638D02*
X281981Y357500D01*
X281392Y357106D01*
X280999Y356518D01*
X280861Y355823D01*
X280887Y355692D01*
X280740Y355472D01*
X280648Y355008D01*
Y346333D01*
X280577Y346286D01*
X280184Y345698D01*
X280046Y345003D01*
X280184Y344309D01*
X280577Y343720D01*
X281166Y343327D01*
X281860Y343189D01*
X282554Y343327D01*
X283143Y343720D01*
X283536Y344309D01*
X283674Y345003D01*
X283536Y345698D01*
X283143Y346286D01*
X283072Y346333D01*
Y354088D01*
X283369Y354147D01*
X283958Y354540D01*
X284335Y355104D01*
X284372Y355110D01*
X284835Y354910D01*
Y351764D01*
X289968D01*
Y356898D01*
X284835D01*
Y356737D01*
X284372Y356537D01*
X284335Y356543D01*
X283958Y357106D01*
X283369Y357500D01*
X282675Y357638D01*
D02*
G37*
G36*
X254405Y353024D02*
Y351400D01*
X256030D01*
X255960Y351751D01*
X255478Y352473D01*
X254756Y352955D01*
X254405Y353024D01*
D02*
G37*
G36*
X253405D02*
X253054Y352955D01*
X252333Y352473D01*
X251851Y351751D01*
X251781Y351400D01*
X253405D01*
Y353024D01*
D02*
G37*
G36*
X212294Y352799D02*
X211600Y352661D01*
X211055Y352297D01*
X203447D01*
X202983Y352204D01*
X202589Y351942D01*
X186506Y335858D01*
X159143D01*
X159002Y336040D01*
X158836Y336358D01*
X158958Y336968D01*
X158820Y337663D01*
X158426Y338251D01*
X157838Y338645D01*
X157143Y338783D01*
X156449Y338645D01*
X155861Y338251D01*
X155467Y337663D01*
X155329Y336968D01*
X155467Y336274D01*
X155861Y335685D01*
X156157Y335487D01*
Y334756D01*
X156249Y334293D01*
X156512Y333899D01*
X156623Y333788D01*
X157016Y333526D01*
X157480Y333433D01*
X187008D01*
X187472Y333526D01*
X187865Y333788D01*
X203949Y349872D01*
X210897D01*
X211011Y349701D01*
X211600Y349308D01*
X212294Y349170D01*
X212988Y349308D01*
X213577Y349701D01*
X213970Y350290D01*
X214108Y350984D01*
X213970Y351679D01*
X213577Y352267D01*
X212988Y352661D01*
X212294Y352799D01*
D02*
G37*
G36*
X256030Y350400D02*
X254405D01*
Y348776D01*
X254756Y348846D01*
X255478Y349328D01*
X255960Y350049D01*
X256030Y350400D01*
D02*
G37*
G36*
X253405D02*
X251781D01*
X251851Y350049D01*
X252333Y349328D01*
X253054Y348846D01*
X253405Y348776D01*
Y350400D01*
D02*
G37*
G36*
X220495Y351097D02*
X219801Y350959D01*
X219212Y350566D01*
X218819Y349977D01*
X218681Y349283D01*
X218819Y348589D01*
X219212Y348000D01*
X219801Y347607D01*
X220495Y347468D01*
X220579Y347485D01*
X221229Y346835D01*
Y343850D01*
X221158Y343803D01*
X220765Y343214D01*
X220626Y342520D01*
X220765Y341825D01*
X221158Y341237D01*
X221747Y340843D01*
X222441Y340705D01*
X223135Y340843D01*
X223724Y341237D01*
X224117Y341825D01*
X224255Y342520D01*
X224117Y343214D01*
X223724Y343803D01*
X223653Y343850D01*
Y347337D01*
X223561Y347801D01*
X223298Y348194D01*
X222293Y349200D01*
X222310Y349283D01*
X222171Y349977D01*
X221778Y350566D01*
X221189Y350959D01*
X220495Y351097D01*
D02*
G37*
G36*
X250896Y341346D02*
Y339722D01*
X252521D01*
X252451Y340073D01*
X251969Y340794D01*
X251247Y341276D01*
X250896Y341346D01*
D02*
G37*
G36*
X249896D02*
X249545Y341276D01*
X248824Y340794D01*
X248342Y340073D01*
X248272Y339722D01*
X249896D01*
Y341346D01*
D02*
G37*
G36*
X289394Y342002D02*
Y339573D01*
X291823D01*
X291786Y339848D01*
X291487Y340570D01*
X291011Y341190D01*
X290391Y341666D01*
X289669Y341965D01*
X289394Y342002D01*
D02*
G37*
G36*
X288394D02*
X288119Y341965D01*
X287397Y341666D01*
X286777Y341190D01*
X286301Y340570D01*
X286002Y339848D01*
X285966Y339573D01*
X288394D01*
Y342002D01*
D02*
G37*
G36*
X252521Y338722D02*
X250896D01*
Y337097D01*
X251247Y337167D01*
X251969Y337649D01*
X252451Y338371D01*
X252521Y338722D01*
D02*
G37*
G36*
X249896D02*
X248272D01*
X248342Y338371D01*
X248824Y337649D01*
X249545Y337167D01*
X249896Y337097D01*
Y338722D01*
D02*
G37*
G36*
X244222Y339526D02*
X240179D01*
Y336762D01*
X244222D01*
Y339526D01*
D02*
G37*
G36*
X239179D02*
X235135D01*
Y336762D01*
X239179D01*
Y339526D01*
D02*
G37*
G36*
X291823Y338573D02*
X289394D01*
Y336145D01*
X289669Y336181D01*
X290391Y336480D01*
X291011Y336956D01*
X291487Y337576D01*
X291786Y338298D01*
X291823Y338573D01*
D02*
G37*
G36*
X288394D02*
X285966D01*
X286002Y338298D01*
X286301Y337576D01*
X286777Y336956D01*
X287397Y336480D01*
X288119Y336181D01*
X288394Y336145D01*
Y338573D01*
D02*
G37*
G36*
X212851Y337749D02*
X212156Y337611D01*
X211568Y337218D01*
X211175Y336629D01*
X211036Y335935D01*
X211053Y335852D01*
X207462Y332260D01*
X182406D01*
X181942Y332168D01*
X181572Y331921D01*
X157519D01*
X157471Y331992D01*
X156883Y332385D01*
X156188Y332523D01*
X155494Y332385D01*
X154905Y331992D01*
X154512Y331403D01*
X154374Y330709D01*
X154512Y330014D01*
X154905Y329426D01*
X155494Y329032D01*
X156188Y328894D01*
X156883Y329032D01*
X157471Y329426D01*
X157519Y329496D01*
X182066D01*
X182530Y329589D01*
X182900Y329836D01*
X194942D01*
X195209Y329336D01*
X194965Y328971D01*
X194827Y328276D01*
X194965Y327582D01*
X195359Y326993D01*
X195947Y326600D01*
X196641Y326462D01*
X197336Y326600D01*
X197924Y326993D01*
X197972Y327064D01*
X205564D01*
X207480Y325148D01*
X207464Y325065D01*
X207602Y324371D01*
X207995Y323782D01*
X208584Y323389D01*
X209278Y323251D01*
X209972Y323389D01*
X210561Y323782D01*
X210954Y324371D01*
X211092Y325065D01*
X210954Y325759D01*
X210561Y326348D01*
X209972Y326741D01*
X209278Y326879D01*
X209195Y326863D01*
X206924Y329134D01*
X206621Y329336D01*
X206681Y329778D01*
X206704Y329836D01*
X207964D01*
X208428Y329928D01*
X208821Y330191D01*
X212767Y334137D01*
X212851Y334121D01*
X213545Y334259D01*
X214134Y334652D01*
X214527Y335241D01*
X214665Y335935D01*
X214527Y336629D01*
X214134Y337218D01*
X213545Y337611D01*
X212851Y337749D01*
D02*
G37*
G36*
X244222Y335763D02*
X240179D01*
Y332999D01*
X244222D01*
Y335763D01*
D02*
G37*
G36*
X239179D02*
X235135D01*
Y332999D01*
X239179D01*
Y335763D01*
D02*
G37*
G36*
X288894Y331662D02*
X288224Y331574D01*
X287600Y331315D01*
X287063Y330904D01*
X286652Y330368D01*
X286393Y329743D01*
X286305Y329073D01*
X286393Y328403D01*
X286652Y327779D01*
X287063Y327242D01*
X287600Y326831D01*
X288224Y326572D01*
X288894Y326484D01*
X289564Y326572D01*
X290189Y326831D01*
X290725Y327242D01*
X291136Y327779D01*
X291395Y328403D01*
X291483Y329073D01*
X291395Y329743D01*
X291136Y330368D01*
X290725Y330904D01*
X290189Y331315D01*
X289564Y331574D01*
X288894Y331662D01*
D02*
G37*
G36*
X245885Y323185D02*
X244261D01*
Y321561D01*
X244612Y321631D01*
X245333Y322113D01*
X245815Y322834D01*
X245885Y323185D01*
D02*
G37*
G36*
X243261D02*
X241636D01*
X241706Y322834D01*
X242188Y322113D01*
X242910Y321631D01*
X243261Y321561D01*
Y323185D01*
D02*
G37*
G36*
X236642Y314903D02*
Y313278D01*
X238266D01*
X238196Y313629D01*
X237714Y314351D01*
X236993Y314833D01*
X236642Y314903D01*
D02*
G37*
G36*
X235642D02*
X235291Y314833D01*
X234569Y314351D01*
X234087Y313629D01*
X234017Y313278D01*
X235642D01*
Y314903D01*
D02*
G37*
G36*
X163661Y317845D02*
X162937Y317750D01*
X162263Y317471D01*
X161684Y317026D01*
X161240Y316447D01*
X160961Y315773D01*
X160865Y315050D01*
X160961Y314326D01*
X161240Y313652D01*
X161684Y313073D01*
X162263Y312629D01*
X162937Y312349D01*
X163661Y312254D01*
X164384Y312349D01*
X165059Y312629D01*
X165638Y313073D01*
X166082Y313652D01*
X166361Y314326D01*
X166456Y315050D01*
X166361Y315773D01*
X166082Y316447D01*
X165638Y317026D01*
X165059Y317471D01*
X164384Y317750D01*
X163661Y317845D01*
D02*
G37*
G36*
X132165D02*
X131441Y317750D01*
X130767Y317471D01*
X130188Y317026D01*
X129744Y316447D01*
X129465Y315773D01*
X129369Y315050D01*
X129465Y314326D01*
X129744Y313652D01*
X130188Y313073D01*
X130767Y312629D01*
X131441Y312349D01*
X132165Y312254D01*
X132888Y312349D01*
X133563Y312629D01*
X134142Y313073D01*
X134586Y313652D01*
X134865Y314326D01*
X134960Y315050D01*
X134865Y315773D01*
X134586Y316447D01*
X134142Y317026D01*
X133563Y317471D01*
X132888Y317750D01*
X132165Y317845D01*
D02*
G37*
G36*
X238266Y312278D02*
X236642D01*
Y310654D01*
X236993Y310724D01*
X237714Y311206D01*
X238196Y311927D01*
X238266Y312278D01*
D02*
G37*
G36*
X235642D02*
X234017D01*
X234087Y311927D01*
X234569Y311206D01*
X235291Y310724D01*
X235642Y310654D01*
Y312278D01*
D02*
G37*
G36*
X276728Y315784D02*
X268444D01*
Y310650D01*
X276728D01*
Y315784D01*
D02*
G37*
G36*
X217035Y304109D02*
Y301681D01*
X219464D01*
X219427Y301956D01*
X219128Y302678D01*
X218653Y303298D01*
X218033Y303774D01*
X217310Y304073D01*
X217035Y304109D01*
D02*
G37*
G36*
X216035D02*
X215760Y304073D01*
X215038Y303774D01*
X214418Y303298D01*
X213943Y302678D01*
X213643Y301956D01*
X213607Y301681D01*
X216035D01*
Y304109D01*
D02*
G37*
G36*
X209102Y303748D02*
X203969D01*
Y298614D01*
X209102D01*
Y303748D01*
D02*
G37*
G36*
X219464Y300681D02*
X217035D01*
Y298253D01*
X217310Y298289D01*
X218033Y298588D01*
X218653Y299064D01*
X219128Y299684D01*
X219427Y300406D01*
X219464Y300681D01*
D02*
G37*
G36*
X216035D02*
X213607D01*
X213643Y300406D01*
X213943Y299684D01*
X214418Y299064D01*
X215038Y298588D01*
X215760Y298289D01*
X216035Y298253D01*
Y300681D01*
D02*
G37*
G36*
X287183Y311230D02*
X285829Y311097D01*
X284527Y310702D01*
X283328Y310061D01*
X282276Y309198D01*
X281413Y308146D01*
X280772Y306947D01*
X280377Y305645D01*
X280244Y304291D01*
X280377Y302938D01*
X280772Y301636D01*
X281413Y300436D01*
X282276Y299385D01*
X283328Y298522D01*
X284527Y297881D01*
X285829Y297486D01*
X287183Y297352D01*
X288537Y297486D01*
X289838Y297881D01*
X291038Y298522D01*
X292089Y299385D01*
X292952Y300436D01*
X293594Y301636D01*
X293988Y302938D01*
X294122Y304291D01*
X293988Y305645D01*
X293594Y306947D01*
X292952Y308146D01*
X292089Y309198D01*
X291038Y310061D01*
X289838Y310702D01*
X288537Y311097D01*
X287183Y311230D01*
D02*
G37*
%LPD*%
G36*
X284812Y374331D02*
X284901Y373661D01*
X285159Y373036D01*
X285571Y372500D01*
X286107Y372089D01*
X286732Y371830D01*
X287402Y371742D01*
X288072Y371830D01*
X288696Y372089D01*
X289232Y372500D01*
X289626Y373013D01*
X289677Y373017D01*
X290126Y372832D01*
Y370581D01*
X288648Y369102D01*
X278144D01*
X277680Y369010D01*
X277287Y368747D01*
X275479Y366939D01*
X275367Y366962D01*
X274673Y366824D01*
X274324Y366591D01*
X273903Y366806D01*
X273858Y367306D01*
X274467Y367915D01*
X274730Y368309D01*
X274823Y368773D01*
Y371520D01*
X274893Y371567D01*
X275287Y372156D01*
X275425Y372850D01*
X275287Y373545D01*
X275034Y373922D01*
X275292Y374422D01*
X284732D01*
X284812Y374331D01*
D02*
G37*
G36*
X246606Y382798D02*
X246362Y382433D01*
X246224Y381739D01*
X246362Y381044D01*
X246755Y380456D01*
X247344Y380062D01*
X247781Y379975D01*
X248213Y379543D01*
Y377327D01*
X248142Y377280D01*
X247749Y376691D01*
X247611Y375997D01*
X247749Y375303D01*
X248142Y374714D01*
X248731Y374321D01*
X249161Y374235D01*
X249326Y373692D01*
X242858Y367225D01*
X242596Y366832D01*
X242503Y366368D01*
Y366220D01*
X237895Y361611D01*
X237433Y361803D01*
Y377574D01*
X243156Y383298D01*
X246339D01*
X246606Y382798D01*
D02*
G37*
D15*
X239679Y336263D02*
D03*
Y348074D02*
D03*
X155512Y376042D02*
D03*
Y387853D02*
D03*
D19*
X184043Y395829D02*
D03*
X195854D02*
D03*
D21*
X272586Y325028D02*
D03*
Y313217D02*
D03*
X155512Y395669D02*
D03*
Y407480D02*
D03*
D58*
X187008Y334646D02*
X203447Y351084D01*
X157480Y334646D02*
X187008D01*
X203447Y351084D02*
X212194D01*
X187008Y409449D02*
X228644D01*
X234948Y403145D01*
X272595Y334597D02*
Y367758D01*
X273610Y368773D01*
X272595Y334597D02*
X278457Y328735D01*
X266408Y359499D02*
X267717Y360807D01*
X266182Y357036D02*
X266408Y357262D01*
Y359499D01*
X273610Y368773D02*
Y372850D01*
X275402Y365147D02*
X278144Y367890D01*
X275367Y365147D02*
X275402D01*
X267717Y360807D02*
Y364804D01*
X289150Y367890D02*
X291339Y370079D01*
X278144Y367890D02*
X289150D01*
X276945Y335989D02*
Y361559D01*
X291339Y370079D02*
Y375427D01*
X288876Y377890D02*
X291339Y375427D01*
X281181Y377890D02*
X288876D01*
X279015Y380056D02*
X281181Y377890D01*
X243716Y365718D02*
Y366368D01*
X285352Y375635D02*
X286656Y374331D01*
X252982Y375635D02*
X285352D01*
X286656Y374331D02*
X287402D01*
X236266Y358268D02*
X243716Y365718D01*
Y366368D02*
X252982Y375635D01*
X184043Y389141D02*
X185031Y388152D01*
Y387955D02*
Y388152D01*
X184043Y389141D02*
Y395829D01*
X212844Y399231D02*
X213070Y399457D01*
X212844Y397884D02*
Y399231D01*
X210370Y395410D02*
X212844Y397884D01*
X207418Y395346D02*
X207482Y395410D01*
X210370D01*
X141646Y405512D02*
X150148Y414014D01*
X125984Y405512D02*
X141646D01*
X150148Y414014D02*
X165064D01*
X155512Y407480D02*
X167323D01*
X177165Y397638D01*
X167323Y407480D02*
X173494D01*
X177165Y383858D02*
Y397638D01*
X207964Y331048D02*
X212851Y335935D01*
X156188Y330709D02*
X182066D01*
X182406Y331048D01*
X207964D01*
X206067Y328276D02*
X209278Y325065D01*
X196641Y328276D02*
X206067D01*
X250396Y339222D02*
X253906Y342731D01*
Y350900D01*
X261119Y327608D02*
X261811Y328300D01*
Y361513D01*
X261361Y361963D02*
Y365013D01*
Y361963D02*
X261811Y361513D01*
X240958Y336263D02*
X247437D01*
X250396Y339222D01*
X206693Y358268D02*
X236266D01*
X236141Y312778D02*
Y316067D01*
X243761Y323686D01*
X202110Y362597D02*
X202128Y362579D01*
X202110Y362597D02*
Y372233D01*
X202093Y372251D02*
X202110Y372233D01*
X199054Y377232D02*
X199280Y377006D01*
X200259D02*
X200378Y376886D01*
X201823Y378331D01*
X199280Y377006D02*
X200259D01*
X249425Y375997D02*
Y380046D01*
X248038Y381432D02*
Y381739D01*
Y381432D02*
X249425Y380046D01*
X281860Y345003D02*
Y355008D01*
X282675Y355823D01*
X277559Y316929D02*
X282701Y311787D01*
X291052Y311024D02*
X292615D01*
X290288Y311787D02*
X291052Y311024D01*
X282701Y311787D02*
X290288D01*
X293307Y311716D02*
Y329694D01*
X292615Y311024D02*
X293307Y311716D01*
X288894Y334106D02*
Y339073D01*
Y334106D02*
X293307Y329694D01*
X282230Y325737D02*
Y330704D01*
Y325737D02*
X288894Y319073D01*
X276945Y335989D02*
X282230Y330704D01*
X226895Y331226D02*
Y354077D01*
X226378Y330709D02*
X226895Y331226D01*
X227682Y327608D02*
X261119D01*
X226990Y326916D02*
X227682Y327608D01*
X226990Y310726D02*
Y326916D01*
X240958Y336263D02*
X242632Y337936D01*
X247534Y354650D02*
X249197D01*
X239679Y336263D02*
X240958D01*
X251969Y352875D02*
Y370079D01*
X242632Y337936D02*
Y343538D01*
X251969Y352875D01*
X240958Y348074D02*
X247534Y354650D01*
X253592Y410252D02*
X253765Y410080D01*
Y401747D02*
Y410080D01*
Y401747D02*
X253937Y401575D01*
X205110Y373874D02*
Y386137D01*
X204567Y386680D02*
X205110Y386137D01*
X201823Y378331D02*
Y384479D01*
X195854Y395829D02*
Y397108D01*
X197527Y398781D01*
X205868D01*
X210630Y403543D01*
X156204Y370079D02*
X181102D01*
X155512Y370771D02*
Y376042D01*
Y370771D02*
X156204Y370079D01*
X181102D02*
X183071Y372047D01*
Y394857D01*
X184043Y395829D01*
X150298Y381890D02*
X175197D01*
X149375Y365056D02*
Y380966D01*
X150298Y381890D01*
X175197D02*
X177165Y383858D01*
X173494Y407480D02*
X181167Y415153D01*
X188101Y422088D01*
X221570D01*
X157143Y336968D02*
X157369Y336742D01*
Y334756D02*
Y336742D01*
Y334756D02*
X157480Y334646D01*
X271844Y324286D02*
X272586Y325028D01*
X271753Y324286D02*
X271844D01*
X244094Y316929D02*
X247208Y320042D01*
X276380D01*
X244094Y298314D02*
Y316929D01*
X234425Y297622D02*
X243403D01*
X244094Y298314D01*
X226535Y301181D02*
X230866D01*
X234425Y297622D01*
X226990Y310726D02*
X236535Y301181D01*
X276380Y320042D02*
X278457Y322119D01*
Y328735D01*
X265620Y329709D02*
X265846Y329483D01*
X271011Y325028D02*
X272586D01*
X266557Y329483D02*
X271011Y325028D01*
X265846Y329483D02*
X266557D01*
X236221Y378077D02*
X242654Y384510D01*
X287222D02*
X287402Y384331D01*
X242654Y384510D02*
X287222D01*
X236221Y360739D02*
Y378077D01*
X211912Y360047D02*
X235529D01*
X236221Y360739D01*
X210630Y361039D02*
X210920D01*
X211912Y360047D01*
X222441Y342520D02*
Y347337D01*
X220495Y349283D02*
X222441Y347337D01*
X212194Y351084D02*
X212294Y350984D01*
X155512Y387853D02*
X160827D01*
X162236Y389262D01*
X162330D01*
X155512Y387853D02*
Y395669D01*
X239679Y348074D02*
X240958D01*
D59*
X281496Y407480D02*
D03*
Y421260D02*
D03*
X279528Y462598D02*
D03*
Y448819D02*
D03*
D60*
X125984Y460630D02*
D03*
X288894Y339073D02*
D03*
Y329073D02*
D03*
X287402Y384331D02*
D03*
Y364331D02*
D03*
Y374331D02*
D03*
X287183Y304291D02*
D03*
X125984Y385512D02*
D03*
Y405512D02*
D03*
Y395512D02*
D03*
Y375512D02*
D03*
X226535Y301181D02*
D03*
X216535D02*
D03*
X236535D02*
D03*
D61*
X143701Y444882D02*
D03*
X173622D02*
D03*
D62*
X288894Y319073D02*
D03*
X287402Y354331D02*
D03*
X125984Y415512D02*
D03*
D63*
X206535Y301181D02*
D03*
D64*
X210630Y403543D02*
D03*
X266182Y357036D02*
D03*
X267717Y364804D02*
D03*
X275367Y365147D02*
D03*
X276945Y361559D02*
D03*
X279015Y380056D02*
D03*
X185031Y387955D02*
D03*
X213070Y399457D02*
D03*
X207418Y395346D02*
D03*
X234948Y403145D02*
D03*
X187008Y409449D02*
D03*
X165064Y414014D02*
D03*
X212851Y335935D02*
D03*
X196641Y328276D02*
D03*
X209278Y325065D02*
D03*
X243761Y323686D02*
D03*
X236141Y312778D02*
D03*
X202093Y372251D02*
D03*
X199054Y377232D02*
D03*
X202128Y362579D02*
D03*
X261361Y365013D02*
D03*
X253906Y350900D02*
D03*
X273610Y372850D02*
D03*
X249425Y375997D02*
D03*
X282675Y355823D02*
D03*
X281860Y345003D02*
D03*
X250396Y339222D02*
D03*
X226378Y330709D02*
D03*
X251969Y370079D02*
D03*
X249197Y354650D02*
D03*
X253937Y401575D02*
D03*
X253592Y410252D02*
D03*
X205110Y373874D02*
D03*
X204567Y386680D02*
D03*
X201823Y384479D02*
D03*
X149375Y365056D02*
D03*
X221570Y422088D02*
D03*
X181167Y415153D02*
D03*
X156188Y330709D02*
D03*
X157143Y336968D02*
D03*
X265620Y329709D02*
D03*
X248038Y381739D02*
D03*
X206693Y358268D02*
D03*
X210630Y361039D02*
D03*
X222441Y342520D02*
D03*
X226895Y354077D02*
D03*
X212294Y350984D02*
D03*
X162330Y389262D02*
D03*
X220495Y349283D02*
D03*
M02*
