G04*
G04 #@! TF.GenerationSoftware,Altium Limited,Altium Designer,20.1.12 (249)*
G04*
G04 Layer_Color=32896*
%FSLAX25Y25*%
%MOIN*%
G70*
G04*
G04 #@! TF.SameCoordinates,A4FAC8CF-ADEF-4931-830A-096F340B5E0A*
G04*
G04*
G04 #@! TF.FilePolarity,Positive*
G04*
G01*
G75*
%ADD11C,0.01000*%
%ADD13C,0.00394*%
D11*
X166193Y400403D02*
Y402371D01*
X165209D01*
X164881Y402043D01*
Y401387D01*
X165209Y401059D01*
X166193D01*
X165537D02*
X164881Y400403D01*
X163241D02*
Y402371D01*
X164225Y401387D01*
X162913D01*
X272638Y305796D02*
Y307764D01*
X271654D01*
X271326Y307436D01*
Y306780D01*
X271654Y306452D01*
X272638D01*
X271982D02*
X271326Y305796D01*
X269358D02*
X270670D01*
X269358Y307108D01*
Y307436D01*
X269686Y307764D01*
X270342D01*
X270670Y307436D01*
X164136Y376058D02*
X164464Y375730D01*
Y375074D01*
X164136Y374746D01*
X162824D01*
X162496Y375074D01*
Y375730D01*
X162824Y376058D01*
X162496Y376714D02*
Y377370D01*
Y377042D01*
X164464D01*
X164136Y376714D01*
X164464Y379666D02*
Y378354D01*
X163480D01*
X163808Y379010D01*
Y379338D01*
X163480Y379666D01*
X162824D01*
X162496Y379338D01*
Y378682D01*
X162824Y378354D01*
X240827Y331013D02*
X241155Y331341D01*
X241811D01*
X242139Y331013D01*
Y329701D01*
X241811Y329373D01*
X241155D01*
X240827Y329701D01*
X240171Y329373D02*
X239515D01*
X239843D01*
Y331341D01*
X240171Y331013D01*
X238531D02*
X238203Y331341D01*
X237547D01*
X237219Y331013D01*
Y330685D01*
X237547Y330357D01*
X237875D01*
X237547D01*
X237219Y330029D01*
Y329701D01*
X237547Y329373D01*
X238203D01*
X238531Y329701D01*
X178916Y391158D02*
X178588Y390830D01*
X177932D01*
X177604Y391158D01*
Y392470D01*
X177932Y392798D01*
X178588D01*
X178916Y392470D01*
X180884Y390830D02*
X180228Y391158D01*
X179572Y391814D01*
Y392470D01*
X179900Y392798D01*
X180556D01*
X180884Y392470D01*
Y392142D01*
X180556Y391814D01*
X179572D01*
D13*
X269416Y319122D02*
X275755D01*
X189948Y392660D02*
Y398999D01*
X152343Y401576D02*
X158682D01*
X236509Y342167D02*
X242847D01*
X152343Y381948D02*
X158682D01*
M02*
