G04*
G04 #@! TF.GenerationSoftware,Altium Limited,Altium Designer,20.1.12 (249)*
G04*
G04 Layer_Color=16711935*
%FSLAX25Y25*%
%MOIN*%
G70*
G04*
G04 #@! TF.SameCoordinates,A4FAC8CF-ADEF-4931-830A-096F340B5E0A*
G04*
G04*
G04 #@! TF.FilePolarity,Negative*
G04*
G01*
G75*
%ADD35R,0.07480X0.04921*%
%ADD39R,0.04921X0.07480*%
%ADD41R,0.07480X0.04331*%
%ADD51C,0.08674*%
%ADD52C,0.04737*%
%ADD53C,0.07087*%
%ADD54C,0.04331*%
%ADD55R,0.04331X0.04331*%
%ADD56R,0.04331X0.04331*%
%ADD57C,0.03162*%
D35*
X239679Y336263D02*
D03*
Y348074D02*
D03*
X155512Y376042D02*
D03*
Y387853D02*
D03*
D39*
X184043Y395829D02*
D03*
X195854D02*
D03*
D41*
X272586Y325028D02*
D03*
Y313217D02*
D03*
X155512Y395669D02*
D03*
Y407480D02*
D03*
D51*
X281496D02*
D03*
Y421260D02*
D03*
X279528Y462598D02*
D03*
Y448819D02*
D03*
D52*
X125984Y460630D02*
D03*
X287183Y304291D02*
D03*
D53*
X143701Y444882D02*
D03*
X173622D02*
D03*
D54*
X288894Y339073D02*
D03*
Y329073D02*
D03*
X287402Y384331D02*
D03*
Y364331D02*
D03*
Y374331D02*
D03*
X125984Y385512D02*
D03*
Y405512D02*
D03*
Y395512D02*
D03*
Y375512D02*
D03*
X226535Y301181D02*
D03*
X216535D02*
D03*
X236535D02*
D03*
D55*
X288894Y319073D02*
D03*
X287402Y354331D02*
D03*
X125984Y415512D02*
D03*
D56*
X206535Y301181D02*
D03*
D57*
X210630Y403543D02*
D03*
X266182Y357036D02*
D03*
X267717Y364804D02*
D03*
X275367Y365147D02*
D03*
X276945Y361559D02*
D03*
X279015Y380056D02*
D03*
X185031Y387955D02*
D03*
X213070Y399457D02*
D03*
X207418Y395346D02*
D03*
X234948Y403145D02*
D03*
X187008Y409449D02*
D03*
X165064Y414014D02*
D03*
X212851Y335935D02*
D03*
X196641Y328276D02*
D03*
X209278Y325065D02*
D03*
X243761Y323686D02*
D03*
X236141Y312778D02*
D03*
X202093Y372251D02*
D03*
X199054Y377232D02*
D03*
X202128Y362579D02*
D03*
X261361Y365013D02*
D03*
X253906Y350900D02*
D03*
X273610Y372850D02*
D03*
X249425Y375997D02*
D03*
X282675Y355823D02*
D03*
X281860Y345003D02*
D03*
X250396Y339222D02*
D03*
X226378Y330709D02*
D03*
X251969Y370079D02*
D03*
X249197Y354650D02*
D03*
X253937Y401575D02*
D03*
X253592Y410252D02*
D03*
X205110Y373874D02*
D03*
X204567Y386680D02*
D03*
X201823Y384479D02*
D03*
X149375Y365056D02*
D03*
X221570Y422088D02*
D03*
X181167Y415153D02*
D03*
X156188Y330709D02*
D03*
X157143Y336968D02*
D03*
X265620Y329709D02*
D03*
X248038Y381739D02*
D03*
X206693Y358268D02*
D03*
X210630Y361039D02*
D03*
X222441Y342520D02*
D03*
X226895Y354077D02*
D03*
X212294Y350984D02*
D03*
X162330Y389262D02*
D03*
X220495Y349283D02*
D03*
M02*
