G04*
G04 #@! TF.GenerationSoftware,Altium Limited,Altium Designer,20.1.12 (249)*
G04*
G04 Layer_Physical_Order=1*
G04 Layer_Color=255*
%FSLAX25Y25*%
%MOIN*%
G70*
G04*
G04 #@! TF.SameCoordinates,A4FAC8CF-ADEF-4931-830A-096F340B5E0A*
G04*
G04*
G04 #@! TF.FilePolarity,Positive*
G04*
G01*
G75*
%ADD15R,0.07087X0.04528*%
%ADD16R,0.10630X0.10236*%
%ADD17R,0.00984X0.02953*%
%ADD18R,0.02953X0.00984*%
%ADD19R,0.04528X0.07087*%
%ADD20R,0.07087X0.04331*%
%ADD21R,0.07087X0.03937*%
%ADD22R,0.03937X0.07087*%
%ADD23R,0.01378X0.01968*%
%ADD24R,0.04331X0.05118*%
%ADD25R,0.03740X0.09843*%
%ADD26R,0.19291X0.24016*%
%ADD27R,0.01181X0.05709*%
%ADD28R,0.05709X0.01181*%
%ADD29R,0.02756X0.06299*%
%ADD30R,0.04724X0.05512*%
%ADD31R,0.04724X0.08661*%
%ADD32R,0.06299X0.05512*%
%ADD33R,0.07087X0.04842*%
%ADD34R,0.04842X0.07087*%
%ADD58C,0.01181*%
%ADD59C,0.07874*%
%ADD60C,0.03937*%
%ADD61C,0.06693*%
%ADD62R,0.03937X0.03937*%
%ADD63R,0.03937X0.03937*%
%ADD64C,0.02362*%
G36*
X285811Y448638D02*
Y424567D01*
X285311Y424398D01*
X285017Y424781D01*
X283986Y425572D01*
X282785Y426070D01*
X281996Y426174D01*
Y421260D01*
Y416346D01*
X282785Y416450D01*
X283986Y416947D01*
X285017Y417739D01*
X285311Y418122D01*
X285811Y417952D01*
Y413510D01*
X283755Y411454D01*
X282680Y411899D01*
X281496Y412055D01*
X280312Y411899D01*
X279209Y411442D01*
X278261Y410715D01*
X277534Y409768D01*
X277077Y408664D01*
X276922Y407480D01*
X277077Y406296D01*
X277534Y405193D01*
X278261Y404246D01*
X279209Y403519D01*
X280312Y403062D01*
X280574Y403027D01*
Y381756D01*
X280074Y381488D01*
X279709Y381732D01*
X279015Y381871D01*
X278931Y381854D01*
X276259Y384526D01*
X275866Y384789D01*
X275401Y384882D01*
X267038D01*
Y390593D01*
X265388D01*
Y392173D01*
X266518D01*
Y400457D01*
X260794D01*
Y392173D01*
X262963D01*
Y390593D01*
X261313D01*
Y382931D01*
X255628D01*
Y385951D01*
X252364D01*
Y386451D01*
X251864D01*
Y390995D01*
X250838D01*
X250571Y391322D01*
X250765Y391772D01*
X251345D01*
Y395815D01*
X248582D01*
Y393881D01*
X248119Y393690D01*
X239000Y402809D01*
Y406657D01*
X238980Y406759D01*
X239441Y407005D01*
X241602Y404844D01*
X241996Y404581D01*
X242460Y404489D01*
X243237D01*
X248582Y399144D01*
Y396815D01*
X251845D01*
X255109D01*
Y399735D01*
X255509Y400002D01*
X255992Y400724D01*
X256061Y401075D01*
X251639D01*
X251462Y400858D01*
X250296D01*
X244596Y406558D01*
X244203Y406821D01*
X243739Y406913D01*
X242962D01*
X234103Y415772D01*
X233709Y416035D01*
X233245Y416127D01*
X232499D01*
Y417883D01*
X229756D01*
Y432575D01*
X229663Y433039D01*
X229400Y433432D01*
X227739Y435093D01*
X227946Y435594D01*
X236587D01*
Y424795D01*
X237843D01*
Y423622D01*
X237935Y423158D01*
X238198Y422765D01*
X238945Y422017D01*
Y419193D01*
X238968Y419076D01*
Y413378D01*
X244693D01*
Y421661D01*
X241370D01*
Y422520D01*
X241278Y422984D01*
X241015Y423377D01*
X240267Y424124D01*
Y424717D01*
X240335Y424772D01*
X252164D01*
X254411Y422525D01*
X254219Y422063D01*
X254142D01*
Y417520D01*
X253642D01*
Y417020D01*
X250378D01*
Y412976D01*
X252380D01*
Y412065D01*
X252020Y411824D01*
X251538Y411103D01*
X251468Y410752D01*
X255717D01*
X255647Y411103D01*
X255165Y411824D01*
X254805Y412065D01*
Y412976D01*
X256906D01*
Y416307D01*
X265911D01*
X266375Y416400D01*
X266768Y416663D01*
X270153Y420048D01*
X276676D01*
X276686Y419971D01*
X277184Y418770D01*
X277975Y417739D01*
X279006Y416947D01*
X280207Y416450D01*
X280996Y416346D01*
Y421260D01*
Y426174D01*
X280207Y426070D01*
X279006Y425572D01*
X277975Y424781D01*
X277184Y423750D01*
X276686Y422549D01*
X276676Y422472D01*
X269651D01*
X269187Y422380D01*
X268794Y422117D01*
X265408Y418732D01*
X256906D01*
Y420825D01*
X262076D01*
X262540Y420917D01*
X262933Y421180D01*
X263625Y421872D01*
X263888Y422265D01*
X263980Y422729D01*
Y431557D01*
X277269Y444845D01*
X278344Y444400D01*
X279528Y444244D01*
X280712Y444400D01*
X281815Y444857D01*
X282762Y445584D01*
X283489Y446532D01*
X283946Y447635D01*
X284102Y448819D01*
X283978Y449764D01*
X284451Y449998D01*
X285811Y448638D01*
D02*
G37*
G36*
X246671Y429458D02*
X247064Y429195D01*
X247528Y429103D01*
X254539D01*
Y426478D01*
X254077Y426287D01*
X253523Y426841D01*
X253130Y427104D01*
X252666Y427197D01*
X241524D01*
Y433952D01*
X241986Y434143D01*
X246671Y429458D01*
D02*
G37*
G36*
X275078Y449764D02*
X274953Y448819D01*
X275109Y447635D01*
X275554Y446560D01*
X261910Y432916D01*
X261648Y432523D01*
X261555Y432059D01*
Y423249D01*
X257115D01*
X256031Y424333D01*
X256222Y424795D01*
X259476D01*
Y434120D01*
X268620Y443264D01*
X268883Y443657D01*
X268975Y444121D01*
Y444369D01*
X274604Y449998D01*
X275078Y449764D01*
D02*
G37*
G36*
X245982Y392399D02*
X245791Y391937D01*
X243129D01*
X243012Y391960D01*
X220473D01*
X220351Y392111D01*
X220229Y392460D01*
X220419Y392744D01*
X220490Y393102D01*
X238394D01*
Y396438D01*
X238417Y396555D01*
Y399310D01*
X238879Y399502D01*
X245982Y392399D01*
D02*
G37*
G36*
X186114Y391528D02*
X187764D01*
Y390953D01*
X186213D01*
Y390344D01*
X185713Y390043D01*
X185531Y390079D01*
Y387955D01*
X184531D01*
Y390079D01*
X184180Y390009D01*
X183459Y389527D01*
X183315Y389312D01*
X182817Y389263D01*
X182106Y389974D01*
Y399341D01*
X186114D01*
Y391528D01*
D02*
G37*
G36*
X161047Y387979D02*
X161635Y387585D01*
X162330Y387447D01*
X163024Y387585D01*
X163278Y387755D01*
X163778Y387488D01*
Y386700D01*
X166708D01*
Y382789D01*
X160560Y376641D01*
X160297Y376248D01*
X160205Y375784D01*
Y370771D01*
X160297Y370307D01*
X160560Y369913D01*
X162914Y367560D01*
X162760Y367096D01*
X162732Y367059D01*
X157715D01*
X157252Y366967D01*
X156858Y366704D01*
X156166Y366013D01*
X155904Y365619D01*
X155811Y365155D01*
Y360136D01*
X154204D01*
Y360136D01*
X153826D01*
Y360136D01*
X149874D01*
Y360136D01*
X149496D01*
Y360136D01*
X148732D01*
Y362379D01*
X149649Y363296D01*
X150069Y363380D01*
X150658Y363773D01*
X151051Y364362D01*
X151189Y365056D01*
X151051Y365750D01*
X150658Y366339D01*
X150069Y366732D01*
X149375Y366870D01*
X148680Y366732D01*
X148092Y366339D01*
X147699Y365750D01*
X147560Y365056D01*
X147630Y364706D01*
X146662Y363738D01*
X146399Y363345D01*
X146307Y362881D01*
Y360136D01*
X145543D01*
Y360136D01*
X145165D01*
Y360136D01*
X141236D01*
Y360538D01*
X140070D01*
Y362912D01*
X144368Y367210D01*
X144631Y367603D01*
X144723Y368067D01*
Y371731D01*
X148054D01*
Y374396D01*
X143511D01*
X138967D01*
Y373446D01*
X138687Y373165D01*
X127964D01*
X127794Y373665D01*
X127815Y373681D01*
X128226Y374217D01*
X128485Y374842D01*
X128573Y375512D01*
X128485Y376182D01*
X128451Y376264D01*
X134715Y382529D01*
X134978Y382922D01*
X135071Y383386D01*
Y388251D01*
X139369D01*
Y386700D01*
X147652D01*
Y388251D01*
X160865D01*
X161047Y387979D01*
D02*
G37*
G36*
X276843Y374986D02*
Y371291D01*
X275310D01*
X275043Y371791D01*
X275287Y372156D01*
X275425Y372850D01*
X275287Y373545D01*
X274893Y374133D01*
X274305Y374527D01*
X273610Y374665D01*
X273527Y374648D01*
X268351Y379824D01*
X268067Y380014D01*
X267908Y380417D01*
X267879Y380612D01*
X267925Y380678D01*
X271151D01*
X276843Y374986D01*
D02*
G37*
G36*
X271813Y372934D02*
X271796Y372850D01*
X271934Y372156D01*
X272178Y371791D01*
X271911Y371291D01*
X270725D01*
Y372111D01*
X266682D01*
Y368847D01*
X265682D01*
Y372111D01*
X261964D01*
X261638Y372111D01*
X261638Y372111D01*
X261475Y372083D01*
Y372083D01*
X257432D01*
Y368820D01*
X256432D01*
Y372083D01*
X252894D01*
X252819Y372133D01*
X252468Y372203D01*
Y370079D01*
X251468D01*
Y372203D01*
X251117Y372133D01*
X251086Y372112D01*
X250636Y372413D01*
X250637Y372418D01*
Y374667D01*
X250708Y374714D01*
X251101Y375303D01*
X251239Y375997D01*
X251101Y376691D01*
X250725Y377255D01*
X250754Y377396D01*
X250897Y377755D01*
X266992D01*
X271813Y372934D01*
D02*
G37*
G36*
X277217Y380140D02*
X277200Y380056D01*
X277338Y379362D01*
X277732Y378773D01*
X278320Y378380D01*
X279015Y378242D01*
X279709Y378380D01*
X280074Y378624D01*
X280574Y378357D01*
Y366282D01*
X280074Y366074D01*
X277721Y368428D01*
X277818Y368913D01*
X277869Y368987D01*
X278221Y369221D01*
X278912Y369913D01*
X279175Y370307D01*
X279268Y370771D01*
Y375488D01*
X279175Y375952D01*
X278912Y376345D01*
X273263Y381995D01*
X273454Y382457D01*
X274899D01*
X277217Y380140D01*
D02*
G37*
G36*
X200524Y364237D02*
X200544Y364135D01*
X200073Y363430D01*
X199953Y362826D01*
X197260D01*
Y363205D01*
X193217D01*
Y359941D01*
Y356677D01*
X195545D01*
X205102Y347120D01*
Y345874D01*
X206791D01*
Y344874D01*
X205102D01*
Y343442D01*
X162492D01*
X154807Y351128D01*
X154592Y351449D01*
X153901Y352140D01*
X154108Y352640D01*
X154204D01*
Y352640D01*
X158035D01*
X158157Y352640D01*
X158535D01*
X158657Y352640D01*
X162488D01*
Y360136D01*
X158736D01*
X158535Y360136D01*
X158236Y360512D01*
Y364635D01*
X200378D01*
X200524Y364237D01*
D02*
G37*
G36*
X239158Y389280D02*
X243012D01*
Y388280D01*
X239158D01*
Y387189D01*
X239559D01*
Y383653D01*
Y379716D01*
Y375780D01*
Y371843D01*
Y367905D01*
X242895D01*
X243012Y367882D01*
X244774D01*
X251272Y361384D01*
X251347Y361334D01*
X251419Y360699D01*
X251342Y360622D01*
X251079Y360229D01*
X250987Y359765D01*
Y358154D01*
X249280Y356448D01*
X249197Y356464D01*
X248502Y356326D01*
X247914Y355933D01*
X247521Y355344D01*
X247382Y354650D01*
X247521Y353955D01*
X247914Y353367D01*
X248172Y353194D01*
Y353017D01*
X248265Y352553D01*
X248527Y352160D01*
X249153Y351534D01*
Y350937D01*
X248654Y350936D01*
Y350936D01*
X245724D01*
Y351945D01*
X245632Y352409D01*
X245369Y352802D01*
X242983Y355188D01*
X242590Y355451D01*
X242126Y355543D01*
X239405D01*
X238384Y356564D01*
Y359835D01*
X238394D01*
Y360561D01*
X238417Y360678D01*
Y363287D01*
X238394Y363404D01*
Y366740D01*
X236827D01*
Y367142D01*
X235736D01*
Y363287D01*
Y359433D01*
X235960D01*
Y356062D01*
X236052Y355598D01*
X236315Y355204D01*
X238046Y353473D01*
X238439Y353211D01*
X238903Y353118D01*
X241624D01*
X243300Y351443D01*
Y350936D01*
X240370D01*
Y345211D01*
X248654D01*
Y350519D01*
X249153Y350520D01*
X249245Y350057D01*
X249508Y349663D01*
X252157Y347014D01*
Y346350D01*
Y341269D01*
X251658Y341002D01*
X251247Y341276D01*
X250896Y341346D01*
Y339222D01*
X249896D01*
Y341346D01*
X249545Y341276D01*
X248824Y340794D01*
X248342Y340073D01*
X248233Y339526D01*
X245012D01*
Y336263D01*
Y332999D01*
X247265D01*
X247456Y332537D01*
X242903Y327984D01*
X242641Y327591D01*
X242548Y327127D01*
Y325499D01*
X242188Y325258D01*
X241706Y324536D01*
X241636Y324185D01*
X245885D01*
X245815Y324536D01*
X245333Y325258D01*
X244973Y325499D01*
Y326625D01*
X254204Y335855D01*
X254371Y336106D01*
X255799D01*
Y332866D01*
X257548D01*
Y331642D01*
X257200Y331295D01*
X254942D01*
X254478Y331203D01*
X254084Y330940D01*
X251605Y328460D01*
X251342Y328067D01*
X251250Y327603D01*
Y327122D01*
X248005D01*
Y321397D01*
X255667D01*
Y320753D01*
X242930D01*
X242138Y321545D01*
X242457Y321933D01*
X242910Y321631D01*
X243261Y321561D01*
Y323185D01*
X241636D01*
X241706Y322834D01*
X242008Y322382D01*
X241620Y322063D01*
X231540Y332143D01*
Y351890D01*
X234259Y354609D01*
X234522Y355003D01*
X234614Y355467D01*
Y359433D01*
X234736D01*
Y363287D01*
Y367142D01*
X233646D01*
Y366740D01*
X214362D01*
Y364500D01*
X212878D01*
X212414Y364407D01*
X212021Y364145D01*
X210713Y362837D01*
X210630Y362854D01*
X209936Y362716D01*
X209347Y362322D01*
X208954Y361734D01*
X208816Y361039D01*
X208954Y360345D01*
X209347Y359756D01*
X209936Y359363D01*
X210630Y359225D01*
X211324Y359363D01*
X211913Y359756D01*
X212306Y360345D01*
X212444Y361039D01*
X212428Y361123D01*
X213380Y362075D01*
X214339D01*
Y361024D01*
X214362Y360907D01*
Y359835D01*
X214803D01*
X215010Y359335D01*
X208493Y352818D01*
X208230Y352424D01*
X208138Y351960D01*
Y348121D01*
X207824Y347972D01*
X207638Y347970D01*
X207550Y348101D01*
X197260Y358392D01*
Y360402D01*
X201162D01*
X201529Y360475D01*
X201628Y360455D01*
Y362579D01*
X202128D01*
Y363079D01*
X204252D01*
X204182Y363430D01*
X203711Y364135D01*
X203731Y364237D01*
X203877Y364635D01*
X204219D01*
X204683Y364727D01*
X205077Y364990D01*
X205768Y365682D01*
X206031Y366075D01*
X206124Y366539D01*
Y367475D01*
X206291Y367905D01*
X209102D01*
Y366883D01*
X205836Y363617D01*
X205573Y363223D01*
X205481Y362759D01*
Y359598D01*
X205410Y359551D01*
X205017Y358962D01*
X204878Y358268D01*
X205017Y357573D01*
X205410Y356985D01*
X205999Y356591D01*
X206693Y356453D01*
X207387Y356591D01*
X207976Y356985D01*
X208369Y357573D01*
X208507Y358268D01*
X208369Y358962D01*
X207976Y359551D01*
X207905Y359598D01*
Y362257D01*
X211172Y365524D01*
X211435Y365917D01*
X211527Y366381D01*
Y367905D01*
X213197D01*
Y369874D01*
Y373846D01*
X213366Y373880D01*
X213759Y374143D01*
X217318Y377702D01*
X217581Y378095D01*
X217673Y378559D01*
Y386687D01*
X220522Y389536D01*
X239158D01*
Y389280D01*
D02*
G37*
G36*
X232190Y357310D02*
Y355969D01*
X229471Y353250D01*
X229208Y352856D01*
X229116Y352392D01*
Y331641D01*
X229208Y331177D01*
X229471Y330784D01*
X240915Y319339D01*
X240724Y318877D01*
X239924D01*
X228176Y330625D01*
X228192Y330709D01*
X228054Y331403D01*
X227661Y331992D01*
X227072Y332385D01*
X226378Y332523D01*
X225684Y332385D01*
X225095Y331992D01*
X224702Y331403D01*
X224564Y330709D01*
X224702Y330014D01*
X225095Y329426D01*
X225684Y329032D01*
X226378Y328894D01*
X226461Y328911D01*
X238565Y316808D01*
X238958Y316545D01*
X239422Y316453D01*
X264987D01*
X265451Y316545D01*
X265710Y316718D01*
X266028Y316330D01*
X264831Y315132D01*
X258262D01*
Y311713D01*
X257152Y310603D01*
X256690Y310794D01*
Y311948D01*
X252647D01*
Y309185D01*
X255081D01*
X255272Y308723D01*
X245384Y298834D01*
X238515D01*
X238345Y299334D01*
X238366Y299350D01*
X238778Y299887D01*
X239036Y300511D01*
X239124Y301181D01*
X239036Y301851D01*
X238778Y302476D01*
X238366Y303012D01*
X237830Y303423D01*
X237206Y303682D01*
X236535Y303770D01*
X235865Y303682D01*
X235241Y303423D01*
X234705Y303012D01*
X234293Y302476D01*
X234035Y301851D01*
X233946Y301181D01*
X234035Y300511D01*
X234293Y299887D01*
X234705Y299350D01*
X234726Y299334D01*
X234556Y298834D01*
X228515D01*
X228345Y299334D01*
X228366Y299350D01*
X228778Y299887D01*
X229036Y300511D01*
X229124Y301181D01*
X229036Y301851D01*
X228778Y302476D01*
X228366Y303012D01*
X227830Y303423D01*
X227205Y303682D01*
X226535Y303770D01*
X225865Y303682D01*
X225241Y303423D01*
X224705Y303012D01*
X224293Y302476D01*
X224035Y301851D01*
X223946Y301181D01*
X224035Y300511D01*
X224293Y299887D01*
X224705Y299350D01*
X224726Y299334D01*
X224556Y298834D01*
X219107D01*
X218860Y299334D01*
X219128Y299684D01*
X219427Y300406D01*
X219464Y300681D01*
X216535D01*
Y301681D01*
X219464D01*
X219427Y301956D01*
X219128Y302678D01*
X218653Y303298D01*
X218033Y303774D01*
X217748Y303892D01*
Y316397D01*
X222497D01*
Y319161D01*
X217954D01*
Y319661D01*
X217454D01*
Y322925D01*
X213411D01*
Y320873D01*
X202338D01*
X201026Y322185D01*
X201233Y322685D01*
X203669D01*
X204133Y322777D01*
X204526Y323040D01*
X207054Y325568D01*
X207515Y325322D01*
X207464Y325065D01*
X207602Y324371D01*
X207995Y323782D01*
X208584Y323389D01*
X209278Y323251D01*
X209972Y323389D01*
X210561Y323782D01*
X210661Y323931D01*
X210731Y323945D01*
X211125Y324208D01*
X215527Y328610D01*
X222096D01*
Y334334D01*
X214490D01*
X214255Y334834D01*
X214527Y335241D01*
X214665Y335935D01*
X214649Y336018D01*
X215326Y336696D01*
X215588Y337089D01*
X215681Y337553D01*
Y338083D01*
X215756D01*
Y338453D01*
X219587D01*
X220051Y338545D01*
X220444Y338808D01*
X222358Y340722D01*
X222441Y340705D01*
X223135Y340843D01*
X223724Y341237D01*
X224117Y341825D01*
X224255Y342520D01*
X224117Y343214D01*
X223724Y343803D01*
X223135Y344196D01*
X222441Y344334D01*
X222067Y344260D01*
X221820Y344720D01*
X224282Y347182D01*
X224545Y347576D01*
X224638Y348040D01*
Y353741D01*
X225137Y353790D01*
X225219Y353382D01*
X225612Y352794D01*
X226201Y352400D01*
X226895Y352262D01*
X227589Y352400D01*
X228178Y352794D01*
X228571Y353382D01*
X228709Y354077D01*
X228642Y354416D01*
X231728Y357502D01*
X232190Y357310D01*
D02*
G37*
G36*
X218276Y358518D02*
Y353652D01*
X214665Y350041D01*
X214044Y350662D01*
X214108Y350984D01*
X213970Y351679D01*
X213577Y352267D01*
X212988Y352661D01*
X212558Y352746D01*
X212393Y353289D01*
X217814Y358709D01*
X218276Y358518D01*
D02*
G37*
G36*
X118898Y471654D02*
X293406D01*
Y308260D01*
X293310Y308236D01*
X292905Y308203D01*
X292089Y309198D01*
X291038Y310061D01*
X289838Y310702D01*
X288537Y311097D01*
X287183Y311230D01*
X285829Y311097D01*
X284527Y310702D01*
X283328Y310061D01*
X282276Y309198D01*
X281413Y308146D01*
X280772Y306947D01*
X280377Y305645D01*
X280244Y304291D01*
X280377Y302938D01*
X280772Y301636D01*
X281413Y300436D01*
X282276Y299385D01*
X283328Y298522D01*
X284527Y297881D01*
X285661Y297537D01*
X285587Y297037D01*
X247668D01*
X247477Y297499D01*
X259976Y309998D01*
X266545D01*
Y313418D01*
X276448Y323320D01*
X276711Y323713D01*
X276803Y324177D01*
Y354196D01*
X276711Y354660D01*
X276448Y355054D01*
X273608Y357894D01*
X273215Y358156D01*
X272751Y358249D01*
X270323D01*
Y359899D01*
X263754D01*
X263086Y360567D01*
X263277Y361029D01*
X265282D01*
X265456Y360912D01*
X265920Y360820D01*
X268865D01*
X269328Y360912D01*
X269448Y360993D01*
X275243D01*
X275269Y360865D01*
X275662Y360276D01*
X276251Y359883D01*
X276945Y359745D01*
X277639Y359883D01*
X278004Y360127D01*
X278504Y359859D01*
Y354862D01*
X278596Y354399D01*
X278859Y354005D01*
X282950Y349914D01*
X283343Y349652D01*
X283807Y349559D01*
X288731D01*
X288922Y349097D01*
X288037Y348213D01*
X287774Y347819D01*
X287682Y347355D01*
Y341784D01*
X287397Y341666D01*
X286777Y341190D01*
X286301Y340570D01*
X286002Y339848D01*
X285966Y339573D01*
X288894D01*
X291823D01*
X291786Y339848D01*
X291487Y340570D01*
X291011Y341190D01*
X290391Y341666D01*
X290107Y341784D01*
Y346853D01*
X291818Y348565D01*
X292081Y348958D01*
X292173Y349422D01*
Y351703D01*
Y356958D01*
X292081Y357422D01*
X291818Y357815D01*
X288614Y361019D01*
Y361620D01*
X288899Y361738D01*
X289519Y362213D01*
X289995Y362834D01*
X290294Y363556D01*
X290330Y363831D01*
X287402D01*
X284473D01*
X284509Y363556D01*
X284809Y362834D01*
X285284Y362213D01*
X285905Y361738D01*
X286189Y361620D01*
Y360517D01*
X286282Y360053D01*
X286544Y359660D01*
X288845Y357360D01*
X288653Y356898D01*
X286549D01*
X282999Y360448D01*
Y403194D01*
X283783Y403519D01*
X284731Y404246D01*
X285458Y405193D01*
X285915Y406296D01*
X286071Y407480D01*
X285915Y408664D01*
X285470Y409739D01*
X287881Y412151D01*
X288144Y412544D01*
X288236Y413008D01*
Y449140D01*
X288144Y449604D01*
X287881Y449997D01*
X282674Y455204D01*
X282281Y455466D01*
X281817Y455559D01*
X277238D01*
X276774Y455466D01*
X276381Y455204D01*
X266905Y445728D01*
X266643Y445335D01*
X266550Y444871D01*
Y444623D01*
X257762Y435835D01*
X254539D01*
Y431527D01*
X248030D01*
X241894Y437663D01*
X241501Y437926D01*
X241037Y438018D01*
X228066D01*
X224633Y441451D01*
X224824Y441913D01*
X228043D01*
Y445177D01*
Y448441D01*
X224000D01*
X223653Y448797D01*
Y455481D01*
X224402D01*
Y454126D01*
X230802D01*
X230993Y453664D01*
X229917Y452587D01*
X229654Y452194D01*
X229561Y451730D01*
Y448441D01*
X229043D01*
Y445177D01*
Y441913D01*
X233087D01*
Y445638D01*
X237386D01*
Y443291D01*
X247532D01*
Y455799D01*
X237386D01*
Y448063D01*
X233087D01*
Y448441D01*
X231986D01*
Y451228D01*
X234133Y453375D01*
X234396Y453768D01*
X234488Y454232D01*
Y459744D01*
X234396Y460208D01*
X234133Y460602D01*
X233436Y461298D01*
X233043Y461561D01*
X232579Y461653D01*
X224364D01*
X223900Y461561D01*
X223507Y461298D01*
X219807Y457598D01*
X219795Y457598D01*
X219307Y457751D01*
Y469307D01*
X209161D01*
Y456299D01*
Y443291D01*
X219307D01*
X219449Y442850D01*
Y440456D01*
X219541Y439993D01*
X219804Y439599D01*
X227331Y432072D01*
Y417883D01*
X223412D01*
Y416423D01*
X222497D01*
Y418474D01*
X219583D01*
Y420959D01*
X220083Y421111D01*
X220287Y420805D01*
X220876Y420411D01*
X221570Y420273D01*
X222265Y420411D01*
X222853Y420805D01*
X223247Y421393D01*
X223385Y422088D01*
X223247Y422782D01*
X222853Y423371D01*
X222554Y423571D01*
X222464Y424021D01*
X222201Y424414D01*
X220106Y426510D01*
Y435835D01*
X216475D01*
X216358Y435858D01*
X207482D01*
X200511Y442829D01*
X200702Y443291D01*
X208161D01*
Y455799D01*
X198016D01*
Y452246D01*
X197554Y452054D01*
X194027Y455582D01*
X193633Y455844D01*
X193169Y455937D01*
X191996D01*
Y458866D01*
X185957D01*
Y451117D01*
X185484Y450908D01*
X185183Y451145D01*
Y461027D01*
X185541Y461386D01*
X198016D01*
Y456799D01*
X208161D01*
Y469307D01*
X198016D01*
Y463811D01*
X185039D01*
X184575Y463718D01*
X184182Y463456D01*
X183113Y462387D01*
X182851Y461993D01*
X182758Y461529D01*
Y450537D01*
X182851Y450073D01*
X183113Y449680D01*
X185555Y447238D01*
Y444909D01*
X188476D01*
Y448953D01*
X187269D01*
X186140Y450083D01*
X186347Y450583D01*
X191996D01*
Y453512D01*
X192667D01*
X196615Y449565D01*
Y443799D01*
X196707Y443335D01*
X196970Y442942D01*
X206123Y433788D01*
X206516Y433526D01*
X206980Y433433D01*
X215169D01*
Y424795D01*
X214717Y424681D01*
X210496D01*
Y421760D01*
X215039D01*
Y420760D01*
X210496D01*
Y417839D01*
X213411D01*
Y415710D01*
X217954D01*
Y415210D01*
X218454D01*
Y411946D01*
X222497D01*
Y413998D01*
X223412D01*
Y411946D01*
X227455D01*
Y414915D01*
X228455D01*
Y411946D01*
X230784D01*
X236576Y406155D01*
Y404743D01*
X236076Y404532D01*
X235642Y404821D01*
X234948Y404959D01*
X234254Y404821D01*
X233665Y404428D01*
X233272Y403839D01*
X233134Y403145D01*
X233272Y402451D01*
X233665Y401862D01*
X234254Y401469D01*
X234674Y401385D01*
X234873Y401187D01*
X234889Y401106D01*
X235151Y400713D01*
X235394Y400470D01*
X235203Y400008D01*
X226222D01*
X225955Y400508D01*
X225974Y400537D01*
X232097D01*
Y405671D01*
X223814D01*
Y402251D01*
X222596Y401033D01*
X222478Y401043D01*
X222096Y401199D01*
Y406261D01*
X213812D01*
Y404756D01*
X211960D01*
X211913Y404826D01*
X211324Y405220D01*
X210630Y405358D01*
X209936Y405220D01*
X209347Y404826D01*
X208954Y404238D01*
X208816Y403543D01*
X208954Y402849D01*
X209347Y402260D01*
X209936Y401867D01*
X210630Y401729D01*
X211324Y401867D01*
X211913Y402260D01*
X211960Y402331D01*
X213812D01*
Y401633D01*
X213312Y401223D01*
X213070Y401271D01*
X212376Y401133D01*
X211787Y400740D01*
X211394Y400151D01*
X211256Y399457D01*
X211394Y398762D01*
X211787Y398174D01*
X212376Y397780D01*
X213070Y397642D01*
X213516Y397731D01*
X213564Y397699D01*
X214028Y397607D01*
X214339D01*
Y396555D01*
X214362Y396438D01*
Y394986D01*
X213900Y394794D01*
X204294Y404400D01*
X203901Y404663D01*
X203437Y404756D01*
X199321D01*
X158337Y445739D01*
X157944Y446002D01*
X157480Y446094D01*
X147469D01*
X147147Y446871D01*
X146514Y447695D01*
X145690Y448328D01*
X144731Y448725D01*
X143701Y448861D01*
X142671Y448725D01*
X141711Y448328D01*
X140887Y447695D01*
X140255Y446871D01*
X139857Y445912D01*
X139722Y444882D01*
X139857Y443852D01*
X140255Y442892D01*
X140887Y442068D01*
X141711Y441436D01*
X142671Y441039D01*
X143701Y440903D01*
X144731Y441039D01*
X145690Y441436D01*
X146514Y442068D01*
X147147Y442892D01*
X147469Y443670D01*
X156978D01*
X197962Y402686D01*
X198355Y402423D01*
X198819Y402331D01*
X202935D01*
X207640Y397626D01*
X207450Y397227D01*
X207402Y397157D01*
X206723Y397022D01*
X206135Y396629D01*
X205741Y396040D01*
X205603Y395346D01*
X205741Y394651D01*
X206135Y394063D01*
X206268Y393973D01*
Y390748D01*
X206291Y390631D01*
Y388753D01*
X205791Y388485D01*
X205418Y388735D01*
X205067Y388804D01*
Y386680D01*
X204067D01*
Y388834D01*
X203855Y388976D01*
X203391Y389069D01*
X199650D01*
Y391126D01*
X200287D01*
Y395169D01*
X197524D01*
Y392840D01*
X197202Y392519D01*
X196940Y392126D01*
X196847Y391662D01*
Y391415D01*
X193319D01*
Y388356D01*
X196485D01*
Y387356D01*
X193319D01*
Y385426D01*
X192857Y385235D01*
X191740Y386352D01*
Y390953D01*
X190189D01*
Y391528D01*
X191839D01*
Y397928D01*
X192300Y398119D01*
X192655Y397765D01*
X193048Y397502D01*
X193512Y397410D01*
X197524D01*
Y396169D01*
X200287D01*
Y400213D01*
X197524D01*
Y399834D01*
X194014D01*
X192438Y401410D01*
X192045Y401673D01*
X191581Y401765D01*
X181585D01*
X181121Y401673D01*
X180728Y401410D01*
X180036Y400718D01*
X179773Y400325D01*
X179681Y399861D01*
Y389472D01*
X179773Y389008D01*
X180036Y388615D01*
X183932Y384719D01*
X185580Y383072D01*
X185923Y382842D01*
X185935Y382628D01*
X185875Y382342D01*
X185875D01*
Y379995D01*
X173185D01*
X172721Y379903D01*
X172327Y379640D01*
X170749Y378062D01*
X168420D01*
Y375396D01*
X172463D01*
Y376347D01*
X173687Y377571D01*
X185875D01*
Y375224D01*
X188540D01*
Y378783D01*
X189040D01*
Y379283D01*
X192206D01*
Y381751D01*
X192706Y381958D01*
X192972Y381692D01*
X193365Y381429D01*
X193721Y381358D01*
Y375644D01*
X194457D01*
Y374614D01*
X188575D01*
Y369512D01*
X164391D01*
X162630Y371273D01*
Y375199D01*
X162889Y375405D01*
X163377Y375189D01*
Y371731D01*
X167420D01*
Y374896D01*
X167920D01*
D01*
X167420D01*
Y378062D01*
X166063D01*
X165872Y378524D01*
X168777Y381429D01*
X169040Y381823D01*
X169132Y382287D01*
Y386700D01*
X172062D01*
Y392227D01*
X163778D01*
Y390966D01*
X163278Y390768D01*
X163024Y390938D01*
X162330Y391076D01*
X161635Y390938D01*
X161243Y390676D01*
X147652D01*
Y392227D01*
X139369D01*
Y390676D01*
X134550D01*
X134086Y390583D01*
X133693Y390321D01*
X133001Y389629D01*
X132738Y389235D01*
X132646Y388772D01*
Y383888D01*
X126737Y377979D01*
X126654Y378013D01*
X125984Y378101D01*
X125958Y378097D01*
X125725Y378571D01*
X126674Y379521D01*
X126875Y379655D01*
X130401Y383180D01*
X130663Y383574D01*
X130756Y384038D01*
Y391953D01*
X130663Y392417D01*
X130401Y392810D01*
X129373Y393838D01*
X129564Y394300D01*
X130010D01*
X130474Y394392D01*
X130867Y394655D01*
X145500Y409287D01*
X146687D01*
Y408909D01*
X149156D01*
Y412952D01*
X146687D01*
Y411712D01*
X144998D01*
X144534Y411619D01*
X144140Y411356D01*
X129508Y396724D01*
X128695D01*
X128577Y397009D01*
X128101Y397629D01*
X127481Y398105D01*
X126759Y398404D01*
X126484Y398440D01*
Y395512D01*
Y392583D01*
X126759Y392620D01*
X127044Y392738D01*
X128331Y391451D01*
Y387491D01*
X127831Y387322D01*
X127815Y387343D01*
X127279Y387754D01*
X126654Y388013D01*
X125984Y388101D01*
X125314Y388013D01*
X124690Y387754D01*
X124153Y387343D01*
X123742Y386806D01*
X123483Y386182D01*
X123395Y385512D01*
X123483Y384842D01*
X123742Y384217D01*
X124153Y383681D01*
X124690Y383270D01*
X125314Y383011D01*
X125984Y382923D01*
X126010Y382926D01*
X126244Y382453D01*
X125294Y381503D01*
X125094Y381369D01*
X121568Y377843D01*
X121305Y377450D01*
X121213Y376986D01*
Y374038D01*
X121305Y373574D01*
X121568Y373180D01*
X123653Y371096D01*
X124046Y370833D01*
X124510Y370741D01*
X139189D01*
X139653Y370833D01*
X140046Y371096D01*
X140682Y371731D01*
X142298D01*
Y368569D01*
X138001Y364271D01*
X137738Y363878D01*
X137645Y363414D01*
Y361830D01*
X137145Y361657D01*
X136862Y361847D01*
X136398Y361939D01*
X123995D01*
X123531Y361847D01*
X123138Y361584D01*
X122056Y360502D01*
X121793Y360108D01*
X121701Y359644D01*
Y357782D01*
X121641D01*
Y354026D01*
X120641D01*
Y357782D01*
X118110D01*
Y471788D01*
X118572Y471979D01*
X118898Y471654D01*
D02*
G37*
G36*
X150898Y352217D02*
X150990Y351753D01*
X151252Y351360D01*
X152663Y349949D01*
X152878Y349628D01*
X161133Y341373D01*
X161526Y341110D01*
X161990Y341018D01*
X205504D01*
Y338083D01*
X205579D01*
Y336921D01*
X200461D01*
Y338571D01*
X194343D01*
X194224Y338748D01*
X193532Y339440D01*
X193139Y339703D01*
X192675Y339795D01*
X159951D01*
X149459Y350287D01*
Y352434D01*
X149874Y352640D01*
X150898D01*
Y352217D01*
D02*
G37*
G36*
X139358Y352238D02*
X141236D01*
Y352640D01*
X141976D01*
Y351077D01*
X142069Y350613D01*
X142331Y350220D01*
X155371Y337180D01*
X155329Y336968D01*
X155467Y336274D01*
X155861Y335685D01*
X156449Y335292D01*
X157143Y335154D01*
X157838Y335292D01*
X158426Y335685D01*
X158820Y336274D01*
X158958Y336968D01*
X159385Y337383D01*
X159449Y337370D01*
X192157D01*
X192178Y337264D01*
Y332846D01*
X195429D01*
Y329607D01*
X195359Y329559D01*
X194965Y328971D01*
X194827Y328276D01*
X194949Y327661D01*
X194713Y327161D01*
X191776D01*
Y324153D01*
X189200Y321577D01*
X185527D01*
Y321955D01*
X182665D01*
Y317124D01*
X185527D01*
Y319152D01*
X189702D01*
X190166Y319245D01*
X190559Y319507D01*
X191407Y320355D01*
X191776Y320634D01*
Y320634D01*
X191776Y320634D01*
X195819D01*
Y323897D01*
X196819D01*
Y320634D01*
X199148D01*
X200978Y318804D01*
X201372Y318541D01*
X201835Y318449D01*
X213411D01*
Y316397D01*
X215323D01*
Y303892D01*
X215038Y303774D01*
X214418Y303298D01*
X213943Y302678D01*
X213643Y301956D01*
X213586Y301519D01*
X213058Y301340D01*
X212359Y302038D01*
X211966Y302301D01*
X211502Y302393D01*
X209102D01*
Y303748D01*
X203969D01*
Y298614D01*
X209102D01*
Y299969D01*
X211000D01*
X213470Y297499D01*
X213279Y297037D01*
X118110D01*
Y311294D01*
X120641D01*
Y316624D01*
X121141D01*
Y317124D01*
X124504D01*
Y321955D01*
X122353D01*
Y350270D01*
X124504D01*
Y352640D01*
X127842D01*
Y352640D01*
X128220D01*
Y352640D01*
X132173D01*
Y352640D01*
X132551D01*
Y352640D01*
X133575D01*
Y352217D01*
X133667Y351753D01*
X133930Y351360D01*
X135340Y349950D01*
X135555Y349628D01*
X154391Y330792D01*
X154374Y330709D01*
X154512Y330014D01*
X154905Y329426D01*
X155494Y329032D01*
X156188Y328894D01*
X156883Y329032D01*
X157471Y329426D01*
X157865Y330014D01*
X158003Y330709D01*
X157865Y331403D01*
X157471Y331992D01*
X156883Y332385D01*
X156188Y332523D01*
X156105Y332506D01*
X137484Y351128D01*
X137269Y351449D01*
X136980Y351739D01*
X137187Y352238D01*
X138358D01*
Y356388D01*
X139358D01*
Y352238D01*
D02*
G37*
G36*
X207857Y335526D02*
X208160Y335408D01*
X208230Y335052D01*
X208493Y334658D01*
X210007Y333144D01*
Y331950D01*
X203167Y325110D01*
X200863D01*
Y327161D01*
X198569D01*
X198333Y327661D01*
X198456Y328276D01*
X198318Y328971D01*
X197924Y329559D01*
X197854Y329607D01*
Y332846D01*
X200461D01*
Y334496D01*
X206100D01*
X206563Y334588D01*
X206957Y334851D01*
X207638Y335533D01*
X207857Y335526D01*
D02*
G37*
G36*
X119929Y321955D02*
X118110D01*
Y350270D01*
X119929D01*
Y321955D01*
D02*
G37*
G36*
X274378Y353694D02*
Y324679D01*
X268471Y318772D01*
X268083Y319091D01*
X268256Y319350D01*
X268348Y319814D01*
Y327873D01*
X268256Y328337D01*
X267993Y328730D01*
X267364Y329359D01*
X267434Y329709D01*
X267364Y330059D01*
X267589Y330284D01*
X267852Y330677D01*
X267945Y331141D01*
Y334941D01*
X267852Y335405D01*
X267823Y335449D01*
Y336106D01*
X268890D01*
Y337598D01*
X269390D01*
Y338098D01*
X271866D01*
Y339090D01*
X271465D01*
Y344382D01*
Y348532D01*
X267823D01*
Y352173D01*
X267528D01*
X267410Y352294D01*
X267261Y352673D01*
X267302Y352734D01*
X267394Y353198D01*
Y354174D01*
X270323D01*
Y355824D01*
X272248D01*
X274378Y353694D01*
D02*
G37*
%LPC*%
G36*
X253142Y422063D02*
X250378D01*
Y418020D01*
X253142D01*
Y422063D01*
D02*
G37*
G36*
X255717Y409752D02*
X254092D01*
Y408128D01*
X254443Y408197D01*
X255165Y408679D01*
X255647Y409401D01*
X255717Y409752D01*
D02*
G37*
G36*
X253092D02*
X251468D01*
X251538Y409401D01*
X252020Y408679D01*
X252741Y408197D01*
X253092Y408128D01*
Y409752D01*
D02*
G37*
G36*
X254437Y403699D02*
Y402075D01*
X256061D01*
X255992Y402426D01*
X255509Y403147D01*
X254788Y403629D01*
X254437Y403699D01*
D02*
G37*
G36*
X253437D02*
X253086Y403629D01*
X252364Y403147D01*
X251883Y402426D01*
X251813Y402075D01*
X253437D01*
Y403699D01*
D02*
G37*
G36*
X255109Y395815D02*
X252345D01*
Y391772D01*
X255109D01*
Y395815D01*
D02*
G37*
G36*
X255628Y390995D02*
X252864D01*
Y386951D01*
X255628D01*
Y390995D01*
D02*
G37*
G36*
X148054Y378062D02*
X144011D01*
Y375396D01*
X148054D01*
Y378062D01*
D02*
G37*
G36*
X143011D02*
X138967D01*
Y375396D01*
X143011D01*
Y378062D01*
D02*
G37*
G36*
X192217Y363205D02*
X188173D01*
Y360441D01*
X192217D01*
Y363205D01*
D02*
G37*
G36*
Y359441D02*
X188173D01*
Y358392D01*
X185414Y355632D01*
X182771D01*
Y358175D01*
X179122D01*
Y354420D01*
Y350664D01*
X182771D01*
Y353207D01*
X185916D01*
X186380Y353300D01*
X186773Y353562D01*
X189888Y356677D01*
X192217D01*
Y359441D01*
D02*
G37*
G36*
X178122Y358175D02*
X174472D01*
Y354920D01*
X178122D01*
Y358175D01*
D02*
G37*
G36*
Y353920D02*
X174472D01*
Y350664D01*
X178122D01*
Y353920D01*
D02*
G37*
G36*
X204252Y362079D02*
X202628D01*
Y360455D01*
X202979Y360525D01*
X203700Y361007D01*
X204182Y361728D01*
X204252Y362079D01*
D02*
G37*
G36*
X244012Y339526D02*
X239969D01*
Y336763D01*
X244012D01*
Y339526D01*
D02*
G37*
G36*
Y335763D02*
X239969D01*
Y332999D01*
X244012D01*
Y335763D01*
D02*
G37*
G36*
X245885Y323185D02*
X244261D01*
Y321561D01*
X244612Y321631D01*
X245333Y322113D01*
X245815Y322834D01*
X245885Y323185D01*
D02*
G37*
G36*
X222497Y322925D02*
X218454D01*
Y320161D01*
X222497D01*
Y322925D01*
D02*
G37*
G36*
X251647Y315712D02*
X247604D01*
Y313661D01*
X238175D01*
X237714Y314351D01*
X236993Y314833D01*
X236642Y314903D01*
Y312778D01*
Y310654D01*
X236993Y310724D01*
X237714Y311206D01*
X237734Y311236D01*
X247604D01*
Y309185D01*
X251647D01*
Y312448D01*
Y315712D01*
D02*
G37*
G36*
X235642Y314903D02*
X235291Y314833D01*
X234569Y314351D01*
X234087Y313629D01*
X234017Y313278D01*
X235642D01*
Y314903D01*
D02*
G37*
G36*
X256690Y315712D02*
X252647D01*
Y312948D01*
X256690D01*
Y315712D01*
D02*
G37*
G36*
X235642Y312278D02*
X234017D01*
X234087Y311927D01*
X234569Y311206D01*
X235291Y310724D01*
X235642Y310654D01*
Y312278D01*
D02*
G37*
G36*
X280028Y467512D02*
Y463098D01*
X284441D01*
X284337Y463887D01*
X283840Y465088D01*
X283049Y466119D01*
X282017Y466911D01*
X280816Y467408D01*
X280028Y467512D01*
D02*
G37*
G36*
X284441Y462098D02*
X280028D01*
Y457685D01*
X280816Y457789D01*
X282017Y458286D01*
X283049Y459077D01*
X283840Y460109D01*
X284337Y461310D01*
X284441Y462098D01*
D02*
G37*
G36*
X258677Y469307D02*
X248532D01*
Y456799D01*
X258677D01*
Y461386D01*
X274708D01*
X274718Y461310D01*
X275215Y460109D01*
X276006Y459077D01*
X277038Y458286D01*
X278239Y457789D01*
X279028Y457685D01*
Y462598D01*
Y467512D01*
X278239Y467408D01*
X277038Y466911D01*
X276006Y466119D01*
X275215Y465088D01*
X274718Y463887D01*
X274708Y463811D01*
X258677D01*
Y469307D01*
D02*
G37*
G36*
X247532D02*
X237386D01*
Y456799D01*
X247532D01*
Y469307D01*
D02*
G37*
G36*
X125984Y467569D02*
X124630Y467436D01*
X123329Y467041D01*
X122129Y466399D01*
X121078Y465536D01*
X120215Y464485D01*
X119573Y463285D01*
X119179Y461984D01*
X119045Y460630D01*
X119179Y459276D01*
X119573Y457974D01*
X120215Y456775D01*
X121078Y455723D01*
X122129Y454860D01*
X123329Y454219D01*
X124630Y453824D01*
X125984Y453691D01*
X127338Y453824D01*
X128640Y454219D01*
X129839Y454860D01*
X130891Y455723D01*
X131754Y456775D01*
X132395Y457974D01*
X132790Y459276D01*
X132923Y460630D01*
X132790Y461984D01*
X132395Y463285D01*
X131754Y464485D01*
X130891Y465536D01*
X129839Y466399D01*
X128640Y467041D01*
X127338Y467436D01*
X125984Y467569D01*
D02*
G37*
G36*
X174122Y449200D02*
Y445382D01*
X177940D01*
X177857Y446017D01*
X177419Y447074D01*
X176722Y447982D01*
X175814Y448678D01*
X174757Y449117D01*
X174122Y449200D01*
D02*
G37*
G36*
X173122Y449200D02*
X172487Y449117D01*
X171430Y448678D01*
X170522Y447982D01*
X169825Y447074D01*
X169387Y446017D01*
X169304Y445382D01*
X173122D01*
Y449200D01*
D02*
G37*
G36*
X192398Y448953D02*
X189476D01*
Y444909D01*
X192398D01*
Y448953D01*
D02*
G37*
G36*
X258677Y455799D02*
X248532D01*
Y443291D01*
X258677D01*
Y455799D01*
D02*
G37*
G36*
X173122Y444382D02*
X169304D01*
X169387Y443747D01*
X169825Y442690D01*
X170522Y441782D01*
X171430Y441085D01*
X172487Y440647D01*
X173122Y440564D01*
Y444382D01*
D02*
G37*
G36*
X177940D02*
X174122D01*
Y440564D01*
X174757Y440647D01*
X175814Y441085D01*
X176722Y441782D01*
X177419Y442690D01*
X177857Y443747D01*
X177940Y444382D01*
D02*
G37*
G36*
X192398Y443909D02*
X189476D01*
Y439866D01*
X192398D01*
Y443909D01*
D02*
G37*
G36*
X188476D02*
X185555D01*
Y439866D01*
X188476D01*
Y443909D01*
D02*
G37*
G36*
X202153Y435835D02*
X197216D01*
Y424795D01*
X197504D01*
Y422438D01*
X197596Y421974D01*
X197859Y421581D01*
X199037Y420403D01*
X199430Y420140D01*
X199894Y420048D01*
X200583D01*
Y418240D01*
X208866D01*
Y424279D01*
X200583D01*
Y423422D01*
X200083Y423158D01*
X199928Y423263D01*
Y424795D01*
X202153D01*
Y435835D01*
D02*
G37*
G36*
X178136Y419397D02*
X147195D01*
X146731Y419304D01*
X146337Y419042D01*
X141960Y414664D01*
X140412D01*
Y417594D01*
X135278D01*
Y414664D01*
X128551D01*
Y418079D01*
X123417D01*
Y412945D01*
X126837D01*
X127187Y412595D01*
X127580Y412332D01*
X128044Y412240D01*
X135278D01*
Y409310D01*
X140412D01*
Y412240D01*
X142462D01*
X142926Y412332D01*
X143320Y412595D01*
X146225Y415500D01*
X146687Y415309D01*
Y413952D01*
X149656D01*
X152624D01*
Y416972D01*
X177634D01*
X179369Y415237D01*
X179353Y415153D01*
X179491Y414459D01*
X179884Y413870D01*
X180473Y413477D01*
X181167Y413339D01*
X181861Y413477D01*
X182450Y413870D01*
X182843Y414459D01*
X182981Y415153D01*
X182843Y415848D01*
X182450Y416436D01*
X181861Y416830D01*
X181167Y416968D01*
X181084Y416951D01*
X178993Y419042D01*
X178600Y419304D01*
X178136Y419397D01*
D02*
G37*
G36*
X217454Y414710D02*
X213411D01*
Y411946D01*
X217454D01*
Y414710D01*
D02*
G37*
G36*
X152624Y412952D02*
X150156D01*
Y408909D01*
X152624D01*
Y412952D01*
D02*
G37*
G36*
X165064Y415828D02*
X164369Y415690D01*
X163780Y415297D01*
X163387Y414708D01*
X163249Y414014D01*
X163387Y413319D01*
X163780Y412731D01*
X164369Y412337D01*
X165064Y412199D01*
X165147Y412216D01*
X168771Y408592D01*
X169164Y408329D01*
X169628Y408237D01*
X185678D01*
X185725Y408166D01*
X186313Y407772D01*
X187008Y407634D01*
X187702Y407772D01*
X188291Y408166D01*
X188684Y408754D01*
X188822Y409449D01*
X188684Y410143D01*
X188291Y410732D01*
X187702Y411125D01*
X187008Y411263D01*
X186313Y411125D01*
X185725Y410732D01*
X185678Y410661D01*
X170130D01*
X166861Y413930D01*
X166878Y414014D01*
X166740Y414708D01*
X166347Y415297D01*
X165758Y415690D01*
X165064Y415828D01*
D02*
G37*
G36*
X125984Y408101D02*
X125314Y408013D01*
X124690Y407754D01*
X124153Y407343D01*
X123742Y406806D01*
X123483Y406182D01*
X123395Y405512D01*
X123483Y404842D01*
X123742Y404217D01*
X124153Y403681D01*
X124690Y403270D01*
X125314Y403011D01*
X125984Y402923D01*
X126654Y403011D01*
X127279Y403270D01*
X127815Y403681D01*
X128226Y404217D01*
X128485Y404842D01*
X128573Y405512D01*
X128485Y406182D01*
X128226Y406806D01*
X127815Y407343D01*
X127279Y407754D01*
X126654Y408013D01*
X125984Y408101D01*
D02*
G37*
G36*
X204051Y400213D02*
X201287D01*
Y396169D01*
X204051D01*
Y400213D01*
D02*
G37*
G36*
X125484Y398440D02*
X125209Y398404D01*
X124487Y398105D01*
X123867Y397629D01*
X123391Y397009D01*
X123092Y396287D01*
X123056Y396012D01*
X125484D01*
Y398440D01*
D02*
G37*
G36*
Y395012D02*
X123056D01*
X123092Y394737D01*
X123391Y394015D01*
X123867Y393395D01*
X124487Y392919D01*
X125209Y392620D01*
X125484Y392583D01*
Y395012D01*
D02*
G37*
G36*
X204051Y395169D02*
X201287D01*
Y391126D01*
X204051D01*
Y395169D01*
D02*
G37*
G36*
X287402Y386920D02*
X286732Y386832D01*
X286107Y386573D01*
X285571Y386161D01*
X285159Y385625D01*
X284901Y385001D01*
X284812Y384331D01*
X284901Y383661D01*
X285159Y383036D01*
X285571Y382500D01*
X286107Y382088D01*
X286732Y381830D01*
X287402Y381742D01*
X288072Y381830D01*
X288696Y382088D01*
X289232Y382500D01*
X289644Y383036D01*
X289902Y383661D01*
X289991Y384331D01*
X289902Y385001D01*
X289644Y385625D01*
X289232Y386161D01*
X288696Y386573D01*
X288072Y386832D01*
X287402Y386920D01*
D02*
G37*
G36*
X192206Y378283D02*
X189540D01*
Y375224D01*
X192206D01*
Y378283D01*
D02*
G37*
G36*
X287402Y376920D02*
X286732Y376832D01*
X286107Y376573D01*
X285571Y376162D01*
X285159Y375625D01*
X284901Y375001D01*
X284812Y374331D01*
X284901Y373661D01*
X285159Y373036D01*
X285571Y372500D01*
X286107Y372089D01*
X286732Y371830D01*
X287402Y371742D01*
X288072Y371830D01*
X288696Y372089D01*
X289232Y372500D01*
X289644Y373036D01*
X289902Y373661D01*
X289991Y374331D01*
X289902Y375001D01*
X289644Y375625D01*
X289232Y376162D01*
X288696Y376573D01*
X288072Y376832D01*
X287402Y376920D01*
D02*
G37*
G36*
X172463Y374396D02*
X168420D01*
Y371731D01*
X172463D01*
Y374396D01*
D02*
G37*
G36*
X287902Y367259D02*
Y364831D01*
X290330D01*
X290294Y365106D01*
X289995Y365828D01*
X289519Y366448D01*
X288899Y366924D01*
X288176Y367223D01*
X287902Y367259D01*
D02*
G37*
G36*
X286902D02*
X286627Y367223D01*
X285905Y366924D01*
X285284Y366448D01*
X284809Y365828D01*
X284509Y365106D01*
X284473Y364831D01*
X286902D01*
Y367259D01*
D02*
G37*
G36*
X291823Y338573D02*
X289394D01*
Y336145D01*
X289669Y336181D01*
X290391Y336480D01*
X291011Y336956D01*
X291487Y337576D01*
X291786Y338298D01*
X291823Y338573D01*
D02*
G37*
G36*
X288394D02*
X285966D01*
X286002Y338298D01*
X286301Y337576D01*
X286777Y336956D01*
X287397Y336480D01*
X288119Y336181D01*
X288394Y336145D01*
Y338573D01*
D02*
G37*
G36*
X281860Y346818D02*
X281166Y346679D01*
X280577Y346286D01*
X280184Y345698D01*
X280046Y345003D01*
X280184Y344309D01*
X280577Y343720D01*
X280648Y343673D01*
Y336107D01*
X280740Y335644D01*
X281003Y335250D01*
X286427Y329826D01*
X286393Y329743D01*
X286305Y329073D01*
X286393Y328403D01*
X286652Y327779D01*
X287063Y327242D01*
X287600Y326831D01*
X288224Y326572D01*
X288894Y326484D01*
X289564Y326572D01*
X290189Y326831D01*
X290725Y327242D01*
X291136Y327779D01*
X291395Y328403D01*
X291483Y329073D01*
X291395Y329743D01*
X291136Y330368D01*
X290725Y330904D01*
X290189Y331315D01*
X289564Y331574D01*
X288894Y331662D01*
X288224Y331574D01*
X288142Y331540D01*
X283072Y336610D01*
Y343673D01*
X283143Y343720D01*
X283536Y344309D01*
X283674Y345003D01*
X283536Y345698D01*
X283143Y346286D01*
X282554Y346679D01*
X281860Y346818D01*
D02*
G37*
G36*
X291461Y321640D02*
X286327D01*
Y316506D01*
X291461D01*
Y321640D01*
D02*
G37*
G36*
X181665Y321955D02*
X178803D01*
Y317124D01*
X181665D01*
Y321955D01*
D02*
G37*
G36*
X163661Y317845D02*
X162937Y317750D01*
X162263Y317471D01*
X161684Y317026D01*
X161240Y316447D01*
X160961Y315773D01*
X160865Y315050D01*
X160961Y314326D01*
X161240Y313652D01*
X161684Y313073D01*
X162263Y312629D01*
X162937Y312349D01*
X163661Y312254D01*
X164384Y312349D01*
X165059Y312629D01*
X165638Y313073D01*
X166082Y313652D01*
X166361Y314326D01*
X166456Y315050D01*
X166361Y315773D01*
X166082Y316447D01*
X165638Y317026D01*
X165059Y317471D01*
X164384Y317750D01*
X163661Y317845D01*
D02*
G37*
G36*
X132165D02*
X131441Y317750D01*
X130767Y317471D01*
X130188Y317026D01*
X129744Y316447D01*
X129465Y315773D01*
X129369Y315050D01*
X129465Y314326D01*
X129744Y313652D01*
X130188Y313073D01*
X130767Y312629D01*
X131441Y312349D01*
X132165Y312254D01*
X132888Y312349D01*
X133563Y312629D01*
X134142Y313073D01*
X134586Y313652D01*
X134865Y314326D01*
X134960Y315050D01*
X134865Y315773D01*
X134586Y316447D01*
X134142Y317026D01*
X133563Y317471D01*
X132888Y317750D01*
X132165Y317845D01*
D02*
G37*
G36*
X124504Y316124D02*
X121641D01*
Y311294D01*
X124504D01*
Y316124D01*
D02*
G37*
G36*
X185527Y316124D02*
X182665D01*
Y311294D01*
X185527D01*
Y316124D01*
D02*
G37*
G36*
X181665D02*
X178803D01*
Y311294D01*
X181665D01*
Y316124D01*
D02*
G37*
G36*
X271866Y337098D02*
X269890D01*
Y336106D01*
X271866D01*
Y337098D01*
D02*
G37*
%LPD*%
D15*
X217954Y403399D02*
D03*
Y415210D02*
D03*
X252147Y312448D02*
D03*
Y324259D02*
D03*
X266182Y357036D02*
D03*
Y368847D02*
D03*
X256932Y368820D02*
D03*
Y357009D02*
D03*
X244512Y348074D02*
D03*
Y336263D02*
D03*
X196319Y335708D02*
D03*
Y323897D02*
D03*
X217954Y331472D02*
D03*
Y319661D02*
D03*
X192717Y371752D02*
D03*
Y359941D02*
D03*
X228543Y445177D02*
D03*
Y456988D02*
D03*
D16*
X261811Y342520D02*
D03*
D17*
X266732Y334941D02*
D03*
X264764D02*
D03*
X262795D02*
D03*
X260827D02*
D03*
X258858D02*
D03*
X256890D02*
D03*
Y350098D02*
D03*
X258858D02*
D03*
X260827D02*
D03*
X262795D02*
D03*
X264764D02*
D03*
X266732D02*
D03*
D18*
X254232Y337598D02*
D03*
Y339567D02*
D03*
Y341535D02*
D03*
Y343504D02*
D03*
Y345472D02*
D03*
Y347441D02*
D03*
X269390D02*
D03*
Y345472D02*
D03*
Y343504D02*
D03*
Y341535D02*
D03*
Y339567D02*
D03*
Y337598D02*
D03*
D19*
X264175Y386451D02*
D03*
X252364D02*
D03*
X251845Y396315D02*
D03*
X263656D02*
D03*
X188976Y395669D02*
D03*
X200787D02*
D03*
X241831Y417520D02*
D03*
X253642D02*
D03*
D20*
X143511Y389463D02*
D03*
X167920D02*
D03*
Y374896D02*
D03*
X143511D02*
D03*
D21*
X262404Y312565D02*
D03*
Y324376D02*
D03*
X227955Y414915D02*
D03*
Y403104D02*
D03*
D22*
X137845Y413452D02*
D03*
X149656D02*
D03*
D23*
X209350Y345374D02*
D03*
X211910D02*
D03*
X214469D02*
D03*
Y339665D02*
D03*
X206791D02*
D03*
X209350D02*
D03*
X206791Y345374D02*
D03*
X211910Y339665D02*
D03*
D24*
X196485Y387856D02*
D03*
Y378801D02*
D03*
X188976Y387795D02*
D03*
X189040Y378783D02*
D03*
D25*
X199685Y430315D02*
D03*
X217638D02*
D03*
X239055D02*
D03*
X257008D02*
D03*
D26*
X208661Y456299D02*
D03*
X248031D02*
D03*
D27*
X215551Y396555D02*
D03*
X217520D02*
D03*
X219488D02*
D03*
X221457D02*
D03*
X223425D02*
D03*
X225394D02*
D03*
X227362D02*
D03*
X229331D02*
D03*
X231299D02*
D03*
X233268D02*
D03*
X235236D02*
D03*
X237205D02*
D03*
Y363287D02*
D03*
X235236D02*
D03*
X233268D02*
D03*
X231299D02*
D03*
X229331D02*
D03*
X227362D02*
D03*
X225394D02*
D03*
X223425D02*
D03*
X221457D02*
D03*
X219488D02*
D03*
X217520D02*
D03*
X215551D02*
D03*
D28*
X243012Y390748D02*
D03*
Y388779D02*
D03*
Y386811D02*
D03*
Y384842D02*
D03*
Y382874D02*
D03*
Y380906D02*
D03*
Y378937D02*
D03*
Y376969D02*
D03*
Y375000D02*
D03*
Y373031D02*
D03*
Y371063D02*
D03*
Y369094D02*
D03*
X209744D02*
D03*
Y371063D02*
D03*
Y373031D02*
D03*
Y375000D02*
D03*
Y376969D02*
D03*
Y378937D02*
D03*
Y380906D02*
D03*
Y382874D02*
D03*
Y384842D02*
D03*
Y386811D02*
D03*
Y388779D02*
D03*
Y390748D02*
D03*
D29*
X160511Y356388D02*
D03*
X156181D02*
D03*
X151850D02*
D03*
X147519D02*
D03*
X143189D02*
D03*
X138858D02*
D03*
X134527D02*
D03*
X130196D02*
D03*
X125866D02*
D03*
D30*
X121141Y354026D02*
D03*
D31*
Y316624D02*
D03*
X182165Y316624D02*
D03*
D32*
X178622Y354420D02*
D03*
D33*
X215039Y421260D02*
D03*
X204724D02*
D03*
D03*
D34*
X188976Y454724D02*
D03*
D03*
Y444410D02*
D03*
D58*
X210630Y403543D02*
X217810D01*
X217224Y403399D02*
X217954D01*
X217810Y403543D02*
X217954Y403399D01*
X248329Y386451D02*
X251845D01*
X228543Y414915D02*
X233245D01*
X255673Y370079D02*
X266182D01*
X251845Y386451D02*
X252364D01*
X227955Y414915D02*
X228543D01*
X266182Y370079D02*
X277363D01*
X275980Y362205D02*
X276625Y361559D01*
X276945D01*
X245276Y369094D02*
X252129Y362241D01*
X265920Y362032D02*
X268865D01*
X267110Y367919D02*
X276515D01*
X267717Y364804D02*
X267943Y365030D01*
X268865Y362032D02*
X269037Y362205D01*
X252129Y362241D02*
X265712D01*
X269037Y362205D02*
X275980D01*
X265712Y362241D02*
X265920Y362032D01*
X268573Y365030D02*
X268691Y365147D01*
X276515Y367919D02*
X279716Y364718D01*
Y354862D02*
Y364718D01*
X267943Y365030D02*
X268573D01*
X266182Y368847D02*
X267110Y367919D01*
X268691Y365147D02*
X275367D01*
X281786Y359946D02*
X286024Y355709D01*
X281496Y407480D02*
X281786Y407190D01*
Y359946D02*
Y407190D01*
X264175Y385343D02*
Y386451D01*
Y385343D02*
X265849Y383669D01*
X275401D01*
X279015Y380056D01*
X180894Y389472D02*
Y399861D01*
Y389472D02*
X184789Y385577D01*
X184806Y385593D02*
Y387729D01*
X184789Y385577D02*
X186437Y383929D01*
X184806Y387729D02*
X185031Y387955D01*
X184789Y385577D02*
X184806Y385593D01*
X220020Y390748D02*
X243012D01*
X216461Y387189D02*
X220020Y390748D01*
X209744D02*
X212902D01*
X216461Y387189D01*
Y378559D02*
Y387189D01*
X209744Y375000D02*
X212902D01*
X216461Y378559D01*
X215551Y398819D02*
Y401726D01*
X214028Y398819D02*
X215551D01*
X207480Y390748D02*
Y395283D01*
X215551Y396555D02*
Y398819D01*
X213390Y399457D02*
X214028Y398819D01*
X213070Y399457D02*
X213390D01*
X207480Y390748D02*
X209744D01*
X207418Y395346D02*
X207480Y395283D01*
X198819Y403543D02*
X203437D01*
X213772Y393208D01*
Y393208D02*
Y393208D01*
Y393208D02*
X214468Y392512D01*
X237205Y396555D02*
Y400374D01*
X236009Y401570D02*
X237205Y400374D01*
X236009Y401570D02*
Y401765D01*
X234948Y402825D02*
X236009Y401765D01*
X234948Y402825D02*
Y403145D01*
X251845Y386970D02*
Y388250D01*
Y386970D02*
X252364Y386451D01*
X237788Y402307D02*
X251845Y388250D01*
X237788Y402307D02*
Y406657D01*
X225626Y414160D02*
X230285D01*
X224575Y415210D02*
X225626Y414160D01*
X230285D02*
X237788Y406657D01*
X165064Y414014D02*
X169628Y409449D01*
X187008D01*
X130010Y395512D02*
X144998Y410499D01*
X148278D02*
X149656Y411877D01*
X144998Y410499D02*
X148278D01*
X125984Y395512D02*
X130010D01*
X149656Y411877D02*
Y413452D01*
X121141Y316624D02*
Y354026D01*
X212851Y335935D02*
X214469Y337553D01*
Y339665D01*
X196319Y335708D02*
X206100D01*
X206791Y336400D02*
Y339665D01*
X206100Y335708D02*
X206791Y336400D01*
X196319Y335708D02*
X196641Y335386D01*
Y328276D02*
Y335386D01*
X216674Y331472D02*
X217954D01*
X210267Y325065D02*
X216674Y331472D01*
X209278Y325065D02*
X210267D01*
X252109Y336263D02*
X253346Y337500D01*
X253445Y337598D01*
X253346Y336713D02*
Y337500D01*
X243761Y327127D02*
X253346Y336713D01*
X243761Y323686D02*
Y327127D01*
X236471Y312448D02*
X252147D01*
X236141Y312778D02*
X236471Y312448D01*
X202549Y376626D02*
Y378111D01*
X203241Y378803D01*
X207134Y378937D02*
X209744D01*
X207001Y378803D02*
X207134Y378937D01*
X203241Y378803D02*
X207001D01*
X198800Y372878D02*
X202549Y376626D01*
X202093Y372251D02*
X204328Y374486D01*
Y375896D01*
X205400Y376969D01*
X198800Y370347D02*
Y372878D01*
X198054Y377232D02*
X199054D01*
X196485Y378801D02*
X198054Y377232D01*
X205400Y376969D02*
X209744D01*
X143511Y389463D02*
X162330D01*
X196752Y368299D02*
X198800Y370347D01*
X163889Y368299D02*
X196752D01*
X162330Y389463D02*
X167920D01*
X192717Y359941D02*
X194390Y361614D01*
X201162D01*
X202128Y362579D01*
X204911Y366539D02*
Y369388D01*
X157715Y365847D02*
X204219D01*
X157024Y365155D02*
X157715Y365847D01*
X204219D02*
X204911Y366539D01*
Y369388D02*
X206586Y371063D01*
X209744D01*
X153735Y350485D02*
X161990Y342230D01*
X209561D02*
X211228Y343897D01*
X161990Y342230D02*
X209561D01*
X261477Y360461D02*
X264902Y357036D01*
X249197Y368931D02*
X253115Y365013D01*
X252199Y357652D02*
Y359765D01*
X253115Y365013D02*
X261361D01*
X264902Y357036D02*
X266182D01*
X249197Y354650D02*
X252199Y357652D01*
X252896Y360461D02*
X261477D01*
X252199Y359765D02*
X252896Y360461D01*
X249197Y368931D02*
Y372190D01*
X253906Y350900D02*
Y351521D01*
X255148Y352764D01*
X267494Y378967D02*
X273610Y372850D01*
X254629Y381719D02*
X266932D01*
X278055Y370771D02*
Y375488D01*
X245651Y378967D02*
X267494D01*
X254038Y382310D02*
X254629Y381719D01*
X271654Y381890D02*
X278055Y375488D01*
X267103Y381890D02*
X271654D01*
X266932Y381719D02*
X267103Y381890D01*
X252364Y386451D02*
X254038Y384778D01*
Y382310D02*
Y384778D01*
X277363Y370079D02*
X278055Y370771D01*
X264175Y386451D02*
Y395796D01*
X263656Y396315D02*
X264175Y395796D01*
X251969Y370079D02*
X255673D01*
X249197Y372190D02*
X249425Y372418D01*
Y375997D01*
X224575Y415210D02*
X227660D01*
X217954D02*
X224575D01*
X247344Y387436D02*
X248329Y386451D01*
X247344Y387436D02*
Y387605D01*
X246170Y388779D02*
X247344Y387605D01*
X243012Y388779D02*
X246170D01*
X227660Y415210D02*
X227955Y414915D01*
X230774Y446850D02*
X238976D01*
X230774Y451730D02*
X233276Y454232D01*
X220661Y456738D02*
X224364Y460441D01*
X227955Y414915D02*
X228543Y415503D01*
X230774Y446850D02*
Y451730D01*
X224364Y460441D02*
X232579D01*
X228543Y415503D02*
Y432575D01*
X229100Y445177D02*
X230774Y446850D01*
X232579Y460441D02*
X233276Y459744D01*
X220661Y440456D02*
X228543Y432575D01*
Y445177D02*
X229100D01*
X233276Y454232D02*
Y459744D01*
X220661Y440456D02*
Y456738D01*
X222441Y441929D02*
X227564Y436806D01*
X241037D02*
X247528Y430315D01*
X227564Y436806D02*
X241037D01*
X222441Y441929D02*
Y456001D01*
X247528Y430315D02*
X257008D01*
X267763Y444871D02*
X277238Y454347D01*
X281496Y407480D02*
X287024Y413008D01*
X267763Y444121D02*
Y444871D01*
X287024Y413008D02*
Y449140D01*
X257008Y433366D02*
X267763Y444121D01*
X281817Y454347D02*
X287024Y449140D01*
X257008Y430315D02*
Y433366D01*
X277238Y454347D02*
X281817D01*
X262768Y432059D02*
X279528Y448819D01*
X262076Y422037D02*
X262768Y422729D01*
X256613Y422037D02*
X262076D01*
X262768Y422729D02*
Y432059D01*
X248031Y455905D02*
Y456299D01*
X238976Y446850D02*
X248031Y455905D01*
X254331Y462598D02*
X279528D01*
X248031Y456299D02*
X254331Y462598D01*
X286024Y355709D02*
X287402Y354331D01*
X282790Y355709D02*
X286024D01*
X282675Y355823D02*
X282790Y355709D01*
X279716Y354862D02*
X283807Y350772D01*
X290029D01*
X281860Y336107D02*
X288894Y329073D01*
X281860Y336107D02*
Y345003D01*
X266182Y357036D02*
X272751D01*
X275590Y354196D01*
Y324177D02*
Y354196D01*
X267136Y319814D02*
Y327873D01*
X239422Y317665D02*
X264987D01*
X267136Y319814D01*
X262404Y312565D02*
X263978D01*
X275590Y324177D01*
X226378Y330709D02*
X239422Y317665D01*
X250000Y336263D02*
X252109D01*
X244512D02*
X250000D01*
X250170Y338996D02*
X250396Y339222D01*
X250170Y336433D02*
Y338996D01*
X250000Y336263D02*
X250170Y336433D01*
X250365Y350520D02*
Y352036D01*
X253445Y347441D02*
X254232D01*
X249384Y353017D02*
X250365Y352036D01*
X249384Y353017D02*
Y354462D01*
X249197Y354650D02*
X249384Y354462D01*
X250365Y350520D02*
X253445Y347441D01*
X258760Y350197D02*
X258858Y350098D01*
X258760Y350197D02*
Y351878D01*
X257874Y352764D02*
X258760Y351878D01*
X255148Y352764D02*
X257874D01*
X230328Y331641D02*
Y352392D01*
X242428Y319541D02*
X256187D01*
X230328Y331641D02*
X242428Y319541D01*
X216535Y301181D02*
Y318242D01*
X217954Y319661D01*
X243012Y369094D02*
X245276D01*
X256932Y368820D02*
X266154D01*
X266182Y368847D01*
X255673Y370079D02*
X256932Y368820D01*
X253445Y337598D02*
X254232D01*
X251845Y396315D02*
X253519Y397988D01*
Y400837D01*
X253937Y401255D01*
Y401575D01*
X253592Y417470D02*
X253642Y417520D01*
X253592Y410252D02*
Y417470D01*
X216281Y416884D02*
X217954Y415210D01*
X215039Y421260D02*
X216281Y420018D01*
Y416884D02*
Y420018D01*
X134550Y389463D02*
X143511D01*
X161417Y370771D02*
X163889Y368299D01*
X161417Y370771D02*
Y375784D01*
X167920Y382287D02*
Y389463D01*
X161417Y375784D02*
X167920Y382287D01*
X196911Y387856D02*
X198059Y389004D01*
X196911Y387856D02*
X203391D01*
X196485D02*
X196911D01*
X203391D02*
X204567Y386680D01*
X200787Y395669D02*
Y396949D01*
X199114Y398622D02*
X200787Y396949D01*
X193512Y398622D02*
X199114D01*
X191581Y400553D02*
X193512Y398622D01*
X181585Y400553D02*
X191581D01*
X180894Y399861D02*
X181585Y400553D01*
X186437Y383929D02*
X188225D01*
X189040Y383114D01*
Y378783D02*
Y383114D01*
X188976Y387402D02*
X193829Y382549D01*
X202143Y384479D02*
X203747Y382874D01*
X201823Y384479D02*
X202143D01*
X188976Y387402D02*
Y387795D01*
X199833Y382549D02*
X201476Y380906D01*
X193829Y382549D02*
X199833D01*
X157024Y356595D02*
Y365155D01*
X147519Y356388D02*
Y362881D01*
X149375Y364737D01*
Y365056D01*
X217638Y427264D02*
Y430315D01*
Y427264D02*
X221344Y423557D01*
Y422314D02*
Y423557D01*
Y422314D02*
X221570Y422088D01*
X137845Y413452D02*
X142462D01*
X147195Y418184D01*
X178136D01*
X181167Y415153D01*
X128044Y413452D02*
X137845D01*
X125984Y415512D02*
X128044Y413452D01*
X122425Y376986D02*
X125951Y380512D01*
X139189Y371953D02*
X142133Y374896D01*
X125951Y380512D02*
X126017D01*
X124510Y371953D02*
X139189D01*
X129543Y384038D02*
Y391953D01*
X122425Y374038D02*
Y376986D01*
X142133Y374896D02*
X143511D01*
X125984Y395512D02*
X129543Y391953D01*
X126017Y380512D02*
X129543Y384038D01*
X122425Y374038D02*
X124510Y371953D01*
X133858Y388772D02*
X134550Y389463D01*
X133858Y383386D02*
Y388772D01*
X125984Y375512D02*
X133858Y383386D01*
X138858Y358160D02*
Y363414D01*
X123995Y360727D02*
X136398D01*
X137094Y359924D02*
Y360030D01*
X122913Y359644D02*
X123995Y360727D01*
X136398D02*
X137094Y360030D01*
X122913Y355798D02*
Y359644D01*
X138858Y356388D02*
Y358160D01*
X121141Y354026D02*
X122913Y355798D01*
X137094Y359924D02*
X138858Y358160D01*
X143511Y368067D02*
Y374896D01*
X138858Y363414D02*
X143511Y368067D01*
X173185Y378783D02*
X189040D01*
X169298Y374896D02*
X173185Y378783D01*
X167920Y374896D02*
X169298D01*
X198059Y389004D02*
Y391662D01*
X200787Y394390D01*
Y395669D01*
X209350Y335516D02*
X211220Y333646D01*
Y331448D02*
Y333646D01*
X203669Y323897D02*
X211220Y331448D01*
X197599Y323897D02*
X203669D01*
X196319D02*
X197599D01*
X209350Y335516D02*
Y339665D01*
X189702Y320364D02*
X194649Y325312D01*
X194905D01*
X196319Y323897D01*
X182165Y316624D02*
Y318593D01*
X183937Y320364D01*
X189702D01*
X195040Y335708D02*
X196319D01*
X201835Y319661D02*
X217954D01*
X197599Y323897D02*
X201835Y319661D01*
X192717Y359941D02*
X193996D01*
X206693Y347244D01*
Y345472D02*
Y347244D01*
Y345472D02*
X206791Y345374D01*
X178622Y354420D02*
X185916D01*
X191437Y359941D01*
X192717D01*
X260829Y312565D02*
X262404D01*
X206535Y301181D02*
X211502D01*
X215061Y297622D01*
X245886D01*
X260829Y312565D01*
X290961Y351703D02*
Y356958D01*
X287402Y360517D02*
X290961Y356958D01*
X287402Y360517D02*
Y364331D01*
X290961Y349422D02*
Y351703D01*
X288894Y339073D02*
Y347355D01*
X290961Y349422D01*
X290029Y350772D02*
X290961Y351703D01*
X226380Y403104D02*
X227955D01*
X223425Y400149D02*
X226380Y403104D01*
X223425Y396555D02*
Y400149D01*
X251845Y396315D02*
Y397594D01*
X243739Y405701D02*
X251845Y397594D01*
X242460Y405701D02*
X243739D01*
X233245Y414915D02*
X242460Y405701D01*
X253642Y417520D02*
X253642Y417520D01*
X269651Y421260D02*
X281496D01*
X253642Y417520D02*
X265911D01*
X269651Y421260D01*
X252666Y425984D02*
X256613Y422037D01*
X240335Y425984D02*
X252666D01*
X239055Y423622D02*
Y427264D01*
Y430315D01*
Y427264D02*
X240335Y425984D01*
X223133Y456693D02*
X230118D01*
X222441Y456001D02*
X223133Y456693D01*
X188976Y454724D02*
X193169D01*
X217638Y430315D02*
Y433366D01*
X216358Y434646D02*
X217638Y433366D01*
X206980Y434646D02*
X216358D01*
X197827Y443799D02*
X206980Y434646D01*
X197827Y443799D02*
Y450067D01*
X193169Y454724D02*
X197827Y450067D01*
X201476Y380906D02*
X209744D01*
X203747Y382874D02*
X209744D01*
X188976Y387795D02*
Y395669D01*
X192717Y371752D02*
X193996D01*
X195669Y373425D01*
Y377986D01*
X196485Y378801D01*
X193367Y337382D02*
Y337891D01*
Y337382D02*
X195040Y335708D01*
X192675Y338583D02*
X193367Y337891D01*
X148246Y349785D02*
X159449Y338583D01*
X192675D01*
X143189Y351077D02*
X157143Y337122D01*
Y336968D02*
Y337122D01*
X256879Y320233D02*
Y323684D01*
X256187Y319541D02*
X256879Y320233D01*
X265620Y329389D02*
Y329709D01*
Y329389D02*
X267136Y327873D01*
X266732Y331141D02*
Y334941D01*
X265620Y329709D02*
Y330028D01*
X266732Y331141D01*
X136412Y350485D02*
X156188Y330709D01*
X248038Y381606D02*
Y381739D01*
X245621Y378937D02*
X245651Y378967D01*
X243012Y378937D02*
X245621D01*
X243012Y380906D02*
X247338D01*
X248038Y381606D01*
X264665Y333125D02*
Y334842D01*
X264764Y334941D01*
X262404Y330864D02*
X264665Y333125D01*
X262404Y324376D02*
Y330864D01*
X210315Y366381D02*
Y369094D01*
X209744D02*
X210315D01*
X206693Y362759D02*
X210315Y366381D01*
X206693Y358268D02*
Y362759D01*
X212878Y363287D02*
X215551D01*
X210630Y361039D02*
X212878Y363287D01*
X210630Y361039D02*
X210856Y360813D01*
X219587Y339665D02*
X222441Y342520D01*
X215551Y361024D02*
Y363287D01*
X226895Y354077D02*
Y354383D01*
X212294Y350698D02*
X214665Y348327D01*
X212294Y350698D02*
Y350984D01*
X157480Y444882D02*
X198819Y403543D01*
X143701Y444882D02*
X157480D01*
X214468Y392512D02*
X218603D01*
X219299Y393208D02*
Y393756D01*
X219488Y393945D02*
Y396555D01*
X219299Y393756D02*
X219488Y393945D01*
X218603Y392512D02*
X219299Y393208D01*
X240158Y419193D02*
X241831Y417520D01*
X240158Y419193D02*
Y422520D01*
X239055Y423622D02*
X240158Y422520D01*
X202362Y462598D02*
X208661Y456299D01*
X185039Y462598D02*
X202362D01*
X183970Y450537D02*
Y461529D01*
X185039Y462598D01*
X183970Y450537D02*
X188976Y445532D01*
Y444410D02*
Y445532D01*
X198716Y422438D02*
X199894Y421260D01*
X198716Y429346D02*
X199685Y430315D01*
X198716Y422438D02*
Y429346D01*
X199894Y421260D02*
X204724D01*
X215551Y401726D02*
X217224Y403399D01*
X214469Y348130D02*
X219488Y353150D01*
X209350Y351960D02*
X217454Y360064D01*
X209350Y345374D02*
Y351960D01*
X217454Y360064D02*
Y360975D01*
X214469Y345374D02*
Y348130D01*
X143189Y351077D02*
Y356388D01*
X147779Y353989D02*
X148246Y353521D01*
Y349785D02*
Y353521D01*
X136412Y350485D02*
Y350592D01*
X134787Y352217D02*
X136412Y350592D01*
X134787Y352217D02*
Y353989D01*
X211228Y343897D02*
Y344398D01*
X211910Y345079D01*
X153735Y350485D02*
Y350592D01*
X152110Y352217D02*
X153735Y350592D01*
X152110Y352217D02*
Y353989D01*
X237172Y356062D02*
X238903Y354331D01*
X237172Y356062D02*
Y360645D01*
X237205Y360678D02*
Y363287D01*
X237172Y360645D02*
X237205Y360678D01*
X238903Y354331D02*
X242126D01*
X244512Y351945D01*
Y348074D02*
Y351945D01*
X230328Y352392D02*
X233402Y355467D01*
X231365Y358854D02*
Y360612D01*
X226895Y354383D02*
X231365Y358854D01*
X220495Y349283D02*
Y350002D01*
X221457Y350964D01*
X223425Y348040D02*
Y363287D01*
X218586Y343201D02*
X223425Y348040D01*
X213287Y343201D02*
X218586D01*
X221457Y350964D02*
Y363287D01*
X231299Y360678D02*
Y363287D01*
Y360678D02*
X231365Y360612D01*
X233402Y355467D02*
Y361501D01*
X257571Y324376D02*
X262404D01*
X256879Y323684D02*
X257571Y324376D01*
X252147Y324259D02*
X252462Y324574D01*
Y327603D02*
X254942Y330083D01*
X252462Y324574D02*
Y327603D01*
X254942Y330083D02*
X257702D01*
X258760Y331140D01*
Y334842D01*
X258858Y334941D01*
X264764Y350098D02*
X264862Y350197D01*
Y351878D01*
X266182Y353198D01*
Y357036D01*
X260827Y350098D02*
Y354393D01*
X258211Y357009D02*
X260827Y354393D01*
X256932Y357009D02*
X258211D01*
X219488Y353150D02*
Y363287D01*
X214469Y339665D02*
X219587D01*
X212591Y343897D02*
X213287Y343201D01*
X212591Y343897D02*
Y344398D01*
X211910Y345079D02*
X212591Y344398D01*
D59*
X281496Y407480D02*
D03*
Y421260D02*
D03*
X279528Y462598D02*
D03*
Y448819D02*
D03*
D60*
X125984Y460630D02*
D03*
X288894Y339073D02*
D03*
Y329073D02*
D03*
X287402Y384331D02*
D03*
Y364331D02*
D03*
Y374331D02*
D03*
X287183Y304291D02*
D03*
X125984Y385512D02*
D03*
Y405512D02*
D03*
Y395512D02*
D03*
Y375512D02*
D03*
X226535Y301181D02*
D03*
X216535D02*
D03*
X236535D02*
D03*
D61*
X143701Y444882D02*
D03*
X173622D02*
D03*
D62*
X288894Y319073D02*
D03*
X287402Y354331D02*
D03*
X125984Y415512D02*
D03*
D63*
X206535Y301181D02*
D03*
D64*
X210630Y403543D02*
D03*
X266182Y357036D02*
D03*
X267717Y364804D02*
D03*
X275367Y365147D02*
D03*
X276945Y361559D02*
D03*
X279015Y380056D02*
D03*
X185031Y387955D02*
D03*
X213070Y399457D02*
D03*
X207418Y395346D02*
D03*
X234948Y403145D02*
D03*
X187008Y409449D02*
D03*
X165064Y414014D02*
D03*
X212851Y335935D02*
D03*
X196641Y328276D02*
D03*
X209278Y325065D02*
D03*
X243761Y323686D02*
D03*
X236141Y312778D02*
D03*
X202093Y372251D02*
D03*
X199054Y377232D02*
D03*
X202128Y362579D02*
D03*
X261361Y365013D02*
D03*
X253906Y350900D02*
D03*
X273610Y372850D02*
D03*
X249425Y375997D02*
D03*
X282675Y355823D02*
D03*
X281860Y345003D02*
D03*
X250396Y339222D02*
D03*
X226378Y330709D02*
D03*
X251969Y370079D02*
D03*
X249197Y354650D02*
D03*
X253937Y401575D02*
D03*
X253592Y410252D02*
D03*
X205110Y373874D02*
D03*
X204567Y386680D02*
D03*
X201823Y384479D02*
D03*
X149375Y365056D02*
D03*
X221570Y422088D02*
D03*
X181167Y415153D02*
D03*
X156188Y330709D02*
D03*
X157143Y336968D02*
D03*
X265620Y329709D02*
D03*
X248038Y381739D02*
D03*
X206693Y358268D02*
D03*
X210630Y361039D02*
D03*
X222441Y342520D02*
D03*
X226895Y354077D02*
D03*
X212294Y350984D02*
D03*
X162330Y389262D02*
D03*
X220495Y349283D02*
D03*
M02*
