G04*
G04 #@! TF.GenerationSoftware,Altium Limited,Altium Designer,20.1.12 (249)*
G04*
G04 Layer_Color=128*
%FSLAX25Y25*%
%MOIN*%
G70*
G04*
G04 #@! TF.SameCoordinates,A4FAC8CF-ADEF-4931-830A-096F340B5E0A*
G04*
G04*
G04 #@! TF.FilePolarity,Positive*
G04*
G01*
G75*
%ADD65C,0.00200*%
D65*
X280217Y407480D02*
X282776D01*
X281496Y406201D02*
Y408760D01*
X280217Y421260D02*
X282776D01*
X281496Y419980D02*
Y422539D01*
X120079Y460630D02*
X131890D01*
X125984Y454724D02*
Y466535D01*
X141732Y444882D02*
X145669D01*
X143701Y442913D02*
Y446850D01*
X171653Y444882D02*
X175591D01*
X173622Y442913D02*
Y446850D01*
X287615Y339073D02*
X290174D01*
X288894Y337794D02*
Y340353D01*
X287615Y329073D02*
X290174D01*
X288894Y327794D02*
Y330353D01*
X287615Y319073D02*
X290174D01*
X288894Y317794D02*
Y320353D01*
X286122Y384331D02*
X288681D01*
X287402Y383051D02*
Y385610D01*
X286122Y354331D02*
X288681D01*
X287402Y353051D02*
Y355610D01*
X286122Y364331D02*
X288681D01*
X287402Y363051D02*
Y365610D01*
X286122Y374331D02*
X288681D01*
X287402Y373051D02*
Y375610D01*
X281277Y304291D02*
X293088D01*
X287183Y298386D02*
Y310197D01*
X124705Y385512D02*
X127264D01*
X125984Y384232D02*
Y386791D01*
X124705Y415512D02*
X127264D01*
X125984Y414232D02*
Y416791D01*
X124705Y405512D02*
X127264D01*
X125984Y404232D02*
Y406791D01*
X124705Y395512D02*
X127264D01*
X125984Y394232D02*
Y396791D01*
X124705Y375512D02*
X127264D01*
X125984Y374232D02*
Y376791D01*
X130393Y315050D02*
X133937D01*
X132165Y313278D02*
Y316821D01*
X161889Y315050D02*
X165433D01*
X163661Y313278D02*
Y316821D01*
X278248Y462598D02*
X280807D01*
X279528Y461319D02*
Y463878D01*
X278248Y448819D02*
X280807D01*
X279528Y447539D02*
Y450098D01*
X225256Y301181D02*
X227815D01*
X226535Y299902D02*
Y302461D01*
X215256Y301181D02*
X217815D01*
X216535Y299902D02*
Y302461D01*
X205256Y301181D02*
X207815D01*
X206535Y299902D02*
Y302461D01*
X235256Y301181D02*
X237815D01*
X236535Y299902D02*
Y302461D01*
X210039Y403543D02*
X211221D01*
X210630Y402953D02*
Y404134D01*
X265591Y357036D02*
X266772D01*
X266182Y356446D02*
Y357627D01*
X267126Y364804D02*
X268307D01*
X267717Y364213D02*
Y365395D01*
X274776Y365147D02*
X275957D01*
X275367Y364557D02*
Y365738D01*
X276354Y361559D02*
X277535D01*
X276945Y360968D02*
Y362150D01*
X278424Y380056D02*
X279605D01*
X279015Y379466D02*
Y380647D01*
X184441Y387955D02*
X185622D01*
X185031Y387364D02*
Y388545D01*
X212480Y399457D02*
X213661D01*
X213070Y398866D02*
Y400047D01*
X206827Y395346D02*
X208008D01*
X207418Y394755D02*
Y395936D01*
X234357Y403145D02*
X235539D01*
X234948Y402555D02*
Y403736D01*
X186417Y409449D02*
X187598D01*
X187008Y408858D02*
Y410039D01*
X164473Y414014D02*
X165654D01*
X165064Y413423D02*
Y414604D01*
X212260Y335935D02*
X213441D01*
X212851Y335344D02*
Y336526D01*
X196051Y328276D02*
X197232D01*
X196641Y327686D02*
Y328867D01*
X208687Y325065D02*
X209869D01*
X209278Y324474D02*
Y325656D01*
X243170Y323686D02*
X244351D01*
X243761Y323095D02*
Y324276D01*
X235551Y312778D02*
X236732D01*
X236141Y312188D02*
Y313369D01*
X201503Y372251D02*
X202684D01*
X202093Y371660D02*
Y372841D01*
X198464Y377232D02*
X199645D01*
X199054Y376641D02*
Y377822D01*
X201537Y362579D02*
X202718D01*
X202128Y361989D02*
Y363170D01*
X260770Y365013D02*
X261951D01*
X261361Y364422D02*
Y365603D01*
X253315Y350900D02*
X254496D01*
X253906Y350309D02*
Y351491D01*
X273020Y372850D02*
X274201D01*
X273610Y372260D02*
Y373441D01*
X248834Y375997D02*
X250016D01*
X249425Y375406D02*
Y376587D01*
X282085Y355823D02*
X283266D01*
X282675Y355233D02*
Y356414D01*
X281269Y345003D02*
X282451D01*
X281860Y344413D02*
Y345594D01*
X249806Y339222D02*
X250987D01*
X250396Y338631D02*
Y339812D01*
X225787Y330709D02*
X226969D01*
X226378Y330118D02*
Y331299D01*
X251378Y370079D02*
X252559D01*
X251969Y369488D02*
Y370669D01*
X248606Y354650D02*
X249787D01*
X249197Y354059D02*
Y355240D01*
X253346Y401575D02*
X254528D01*
X253937Y400984D02*
Y402165D01*
X253002Y410252D02*
X254183D01*
X253592Y409661D02*
Y410843D01*
X204520Y373874D02*
X205701D01*
X205110Y373284D02*
Y374465D01*
X203977Y386680D02*
X205158D01*
X204567Y386089D02*
Y387271D01*
X201232Y384479D02*
X202413D01*
X201823Y383888D02*
Y385069D01*
X148784Y365056D02*
X149965D01*
X149375Y364465D02*
Y365647D01*
X220980Y422088D02*
X222161D01*
X221570Y421497D02*
Y422678D01*
X180577Y415153D02*
X181758D01*
X181167Y414563D02*
Y415744D01*
X155598Y330709D02*
X156779D01*
X156188Y330118D02*
Y331299D01*
X156553Y336968D02*
X157734D01*
X157143Y336378D02*
Y337559D01*
X265029Y329709D02*
X266210D01*
X265620Y329118D02*
Y330299D01*
X247448Y381739D02*
X248629D01*
X248038Y381148D02*
Y382329D01*
X206102Y358268D02*
X207283D01*
X206693Y357677D02*
Y358858D01*
X210039Y361039D02*
X211221D01*
X210630Y360449D02*
Y361630D01*
X221850Y342520D02*
X223031D01*
X222441Y341929D02*
Y343110D01*
X226304Y354077D02*
X227485D01*
X226895Y353486D02*
Y354667D01*
X211703Y350984D02*
X212885D01*
X212294Y350394D02*
Y351575D01*
X161739Y389262D02*
X162920D01*
X162330Y388671D02*
Y389852D01*
X219905Y349283D02*
X221086D01*
X220495Y348692D02*
Y349873D01*
M02*
